<svg width="28" height="20" viewBox="0 0 28 20" fill="none" xmlns="http://www.w3.org/2000/svg">
<g clip-path="url(#clip0_2163_20)">
<mask id="mask0_2163_20" style="mask-type:luminance" maskUnits="userSpaceOnUse" x="0" y="0" width="28" height="21">
<path d="M0 0H28V21H0V0Z" fill="white"/>
</mask>
<g mask="url(#mask0_2163_20)">
<path fill-rule="evenodd" clip-rule="evenodd" d="M0 0H28V21H0V0Z" fill="#F7FCFF"/>
<path fill-rule="evenodd" clip-rule="evenodd" d="M0 12.8336V14.5836H28V12.8336H0ZM0 16.0414V17.7914H28V16.0414H0ZM0 6.41638V8.16638H28V6.41638H0ZM0 19.25V21H28V19.25H0ZM0 9.625V11.375H28V9.625H0ZM0 0V1.75H28V0H0ZM0 3.20863V4.95862H28V3.20863H0Z" fill="#E31D1C"/>
<path d="M0 0H17.5V11.375H0V0Z" fill="#2E42A5"/>
<path fill-rule="evenodd" clip-rule="evenodd" d="M1.50673 2.57134L0.871484 3.01672L1.08586 2.22397L0.521484 1.72172H1.25911L1.50586 1.07422L1.79548 1.72172H2.42373L1.93023 2.22397L2.12098 3.01672L1.50673 2.57134ZM5.00674 2.57134L4.37148 3.01672L4.58586 2.22397L4.02236 1.72172H4.75911L5.00586 1.07422L5.29549 1.72172H5.92374L5.43024 2.22397L5.62099 3.01672L5.00674 2.57134ZM7.87149 3.01672L8.50674 2.57047L9.12099 3.01672L8.93024 2.22397L9.42374 1.72172H8.79549L8.50586 1.07422L8.25911 1.72172H7.52236L8.08586 2.22397L7.87149 3.01672ZM12.0067 2.57047L11.3715 3.01672L11.5859 2.22397L11.0224 1.72172H11.7591L12.0059 1.07422L12.2955 1.72172H12.9237L12.4302 2.22397L12.621 3.01672L12.0067 2.57047ZM0.871484 6.51759L1.50673 6.07134L2.12098 6.51759L1.93023 5.72484L2.42373 5.22259H1.79548L1.50586 4.57509L1.25911 5.22259H0.521484L1.08586 5.72484L0.871484 6.51759ZM5.00674 6.07134L4.37148 6.51759L4.58586 5.72484L4.02236 5.22259H4.75911L5.00586 4.57509L5.29549 5.22259H5.92374L5.43024 5.72484L5.62099 6.51759L5.00674 6.07134ZM7.87149 6.51759L8.50674 6.07134L9.12099 6.51759L8.93024 5.72484L9.42374 5.22259H8.79549L8.50586 4.57509L8.25911 5.22259H7.52236L8.08586 5.72484L7.87149 6.51759ZM12.0067 6.07134L11.3715 6.51759L11.5859 5.72484L11.0224 5.22259H11.7591L12.0059 4.57509L12.2955 5.22259H12.9237L12.4302 5.72484L12.621 6.51759L12.0067 6.07134ZM0.871484 10.0176L1.50673 9.57134L2.12098 10.0176L1.93023 9.22484L2.42373 8.72259H1.79548L1.50586 8.07509L1.25911 8.72259H0.521484L1.08586 9.22484L0.871484 10.0167V10.0176ZM5.00674 9.57134L4.37148 10.0176L4.58586 9.22484L4.02236 8.72259H4.75911L5.00586 8.07509L5.29549 8.72259H5.92374L5.43024 9.22484L5.62099 10.0167L5.00674 9.57134ZM7.87149 10.0176L8.50674 9.57134L9.12099 10.0176L8.93024 9.22484L9.42374 8.72259H8.79549L8.50586 8.07509L8.25911 8.72259H7.52236L8.08586 9.22484L7.87149 10.0167V10.0176ZM12.0067 9.57134L11.3715 10.0176L11.5859 9.22484L11.0224 8.72259H11.7591L12.0059 8.07509L12.2955 8.72259H12.9237L12.4302 9.22484L12.621 10.0167L12.0067 9.57134ZM14.8715 3.01759L15.5067 2.57134L16.121 3.01759L15.9302 2.22484L16.4237 1.72259H15.7955L15.5059 1.07509L15.2591 1.72259H14.5215L15.0859 2.22484L14.8715 3.01759ZM15.5067 6.07134L14.8715 6.51759L15.0859 5.72484L14.5215 5.22259H15.2591L15.5059 4.57509L15.7955 5.22259H16.4237L15.9302 5.72484L16.121 6.51759L15.5067 6.07134ZM14.8715 10.0176L15.5067 9.57134L16.121 10.0176L15.9302 9.22484L16.4237 8.72259H15.7955L15.5059 8.07509L15.2591 8.72259H14.5215L15.0859 9.22484L14.8715 10.0167V10.0176ZM3.25674 4.32047L2.62148 4.76672L2.83586 3.97397L2.27148 3.47172H3.00911L3.25586 2.82422L3.54549 3.47172H4.17374L3.68024 3.97397L3.87099 4.76672L3.25674 4.32047ZM6.12149 4.76672L6.75674 4.32047L7.37099 4.76672L7.18024 3.97397L7.67374 3.47172H7.04549L6.75586 2.82422L6.50911 3.47172H5.77149L6.33586 3.97397L6.12149 4.76672ZM10.2567 4.32047L9.62149 4.76672L9.83586 3.97397L9.27236 3.47172H10.0091L10.2559 2.82422L10.5455 3.47172H11.1737L10.6802 3.97397L10.871 4.76672L10.2567 4.32047ZM2.62148 8.26672L3.25674 7.82047L3.87099 8.26672L3.68024 7.47397L4.17374 6.97172H3.54549L3.25586 6.32422L3.00911 6.97172H2.27148L2.83586 7.47397L2.62148 8.26672ZM6.75674 7.82047L6.12149 8.26672L6.33586 7.47397L5.77236 6.97172H6.50911L6.75586 6.32422L7.04549 6.97172H7.67374L7.18024 7.47397L7.37099 8.26672L6.75674 7.82047ZM9.62149 8.26672L10.2567 7.82047L10.871 8.26672L10.6802 7.47397L11.1737 6.97172H10.5455L10.2559 6.32422L10.0091 6.97172H9.27236L9.83586 7.47397L9.62149 8.26672ZM13.7567 4.32047L13.1215 4.76672L13.3359 3.97397L12.7724 3.47172H13.5091L13.7559 2.82422L14.0455 3.47172H14.6737L14.1802 3.97397L14.371 4.76672L13.7567 4.32047ZM13.1215 8.26672L13.7567 7.82047L14.371 8.26672L14.1802 7.47397L14.6737 6.97172H14.0455L13.7559 6.32422L13.5091 6.97172H12.7724L13.3359 7.47397L13.1215 8.26672Z" fill="#F7FCFF"/>
</g>
</g>
<defs>
<clipPath id="clip0_2163_20">
<rect width="28" height="20" rx="3" fill="white"/>
</clipPath>
</defs>
</svg>
