<svg width="240" height="60" viewBox="0 0 240 60" fill="none" xmlns="http://www.w3.org/2000/svg">
<path d="M53.3744 34.7733C53.3744 47.9578 41.7693 58.0522 27.0326 58.217C12.296 58.3818 5.97906e-05 47.8342 5.97906e-05 34.6497C-0.0459922 17.551 26.526 0.081543 26.526 0.081543C26.526 0.081543 53.3744 17.0154 53.3744 34.7733Z" fill="url(#paint0_linear_748_274)"/>
<path d="M38.5454 29.4992C38.5454 23.6485 33.2495 18.8691 26.664 18.8691C20.0786 18.8691 14.7826 23.6485 14.7826 29.4992V29.5404V29.5816C14.7826 30.0348 14.8286 30.4468 14.8747 30.9C15.105 32.9189 15.7497 34.8966 17.6378 37.9455C20.5391 42.6425 24.1312 45.0321 26.618 46.8038C28.9666 44.9909 32.5587 42.6425 35.506 38.0691C37.3941 35.1438 38.0849 33.1661 38.3612 31.1884C38.4533 30.6528 38.4994 30.1172 38.4994 29.5816C38.5454 29.5816 38.5454 29.5404 38.5454 29.4992C38.5454 29.4992 38.5454 29.5404 38.5454 29.4992Z" fill="url(#paint1_radial_748_274)"/>
<path d="M28.0919 18.8694C27.1709 18.7458 15.5658 17.139 7.32244 24.9673C-0.0919345 31.9715 1.15147 40.9123 1.33568 42.0247C4.65142 50.3474 12.7566 56.4453 22.4275 57.8873C36.98 60.0298 46.743 50.4298 47.2956 49.853C45.3614 50.3886 41.7694 51.1715 37.3484 50.6358C32.5129 50.059 28.9669 48.2461 27.1248 47.0513L26.6643 46.7629C15.5658 39.5938 12.7566 29.005 16.8552 23.5252C20.4473 18.6634 25.8354 19.0342 28.0919 18.8694Z" fill="url(#paint2_linear_748_274)"/>
<path d="M38.0391 8.98096C38.9141 9.64018 56.9204 23.4839 52.7297 39.9233C52.0849 42.3954 50.7034 46.0212 47.2495 49.8941C45.3153 50.4298 41.5851 51.2538 36.9338 50.6358C31.8681 49.9765 28.3221 47.9165 26.6182 46.804C29.4273 44.9087 34.9536 40.665 38.2693 33.4547C43.5653 21.8771 39.0983 11.3706 38.0391 8.98096Z" fill="url(#paint3_linear_748_274)"/>
<path d="M26.6183 35.3087C29.3143 35.3087 31.4998 33.3534 31.4998 30.9413C31.4998 28.5293 29.3143 26.574 26.6183 26.574C23.9223 26.574 21.7368 28.5293 21.7368 30.9413C21.7368 33.3534 23.9223 35.3087 26.6183 35.3087Z" fill="url(#paint4_radial_748_274)"/>
<path d="M101.809 21.0925V34.1803C101.809 37.1668 100.925 39.4505 99.2563 41.0316C97.4891 42.6127 95.0347 43.4032 91.893 43.4032C90.1258 43.4032 88.6531 43.1397 87.2786 42.7005C85.9041 42.1735 84.8242 41.5586 84.0388 40.6803C83.2533 41.5586 82.1734 42.1735 80.7989 42.7005C79.5226 43.2275 77.9517 43.4032 76.1845 43.4032C72.9447 43.4032 70.4902 42.6127 68.8212 41.0316C67.1522 39.4505 66.2686 37.1668 66.2686 34.1803V21.0925H70.7847V34.0925C70.7847 36.1127 71.2756 37.5181 72.1592 38.4843C73.0428 39.3627 74.4173 39.8897 76.1845 39.8897C79.8171 39.8897 81.6825 37.9573 81.6825 34.1803V21.1804H86.1987V34.1803C86.1987 38.0451 88.0641 39.8897 91.6966 39.8897C95.3292 39.8897 97.0964 37.9573 97.0964 34.1803V21.1804H101.809V21.0925Z" fill="#281A61"/>
<path d="M126.157 33.829V43.4911C126.157 43.4911 117.027 43.4911 115.75 43.4911C113.885 43.4911 112.314 43.1398 110.841 42.4371C109.369 41.7344 108.289 40.6803 107.503 39.4506C106.718 38.133 106.325 36.6398 106.325 34.9709C106.325 33.2141 106.718 31.7209 107.503 30.4912C108.289 29.1736 109.467 28.2074 110.841 27.5047C112.314 26.802 113.885 26.4507 115.75 26.4507C116.045 26.4507 116.83 26.4507 117.91 26.4507C122.525 26.3628 126.157 29.7006 126.157 33.829ZM120.266 38.6601C121.346 37.6938 121.837 36.4641 121.837 34.883C121.837 33.302 121.346 32.0723 120.266 31.1061C119.187 30.1398 117.91 29.7006 116.241 29.7006C114.67 29.7006 113.296 30.1398 112.216 31.1061C111.136 32.0723 110.645 33.302 110.645 34.883C110.645 36.4641 111.136 37.6938 112.216 38.6601C113.296 39.6263 114.572 40.0655 116.241 40.0655C117.91 40.0655 119.187 39.6263 120.266 38.6601Z" fill="#281A61"/>
<path d="M221.291 29.2615L228.949 22.4102C228.949 22.4102 235.331 28.2074 236.313 28.998C237.589 30.1398 238.473 31.4574 238.963 32.8628C239.454 34.2682 239.454 35.6736 238.963 37.1668C238.473 38.5722 237.589 39.8898 236.214 41.1195C234.84 42.3492 233.367 43.1398 231.796 43.579C230.226 44.0181 228.36 44.0181 226.789 43.579C225.415 43.2276 225.415 43.3154 222.764 41.8222C222.47 41.6465 221.586 40.856 220.899 40.2411C217.659 37.2547 218.052 32.1601 221.291 29.2615ZM229.342 29.6128C227.869 29.6128 226.495 30.2277 225.219 31.2817C223.942 32.3358 223.353 33.6533 223.353 34.9709C223.353 36.2885 223.942 37.5182 225.022 38.4844C226.2 39.5384 227.477 39.9776 228.949 39.9776C230.422 39.9776 231.796 39.3628 233.073 38.3087C234.349 37.1668 234.938 35.9371 234.938 34.6196C234.938 33.302 234.447 32.0723 233.269 31.1061C232.091 30.1398 230.815 29.6128 229.342 29.6128Z" fill="#281A61"/>
<path d="M142.455 42.1735C141.964 42.5248 141.277 42.8762 140.589 43.0518C139.804 43.2275 139.117 43.3154 138.233 43.3154C136.171 43.3154 134.6 42.8762 133.422 41.91C132.342 40.9437 131.753 39.5384 131.753 37.6938V22.6736H136.171V26.5384H141.178V29.7006H136.171V37.6938C136.171 38.4843 136.368 39.0992 136.859 39.5383C137.349 39.9775 137.939 40.1532 138.724 40.1532C139.706 40.1532 140.491 39.8897 141.178 39.4505L142.455 42.1735Z" fill="#281A61"/>
<path d="M159.44 38.133L161.796 40.5925C161.01 41.4708 159.93 42.1735 158.654 42.6127C157.378 43.0519 155.905 43.3154 154.334 43.3154C152.273 43.3154 150.505 42.9641 148.935 42.1735C147.364 41.4708 146.186 40.4168 145.302 39.0992C144.418 37.7817 144.026 36.2884 144.026 34.6195C144.026 32.9506 144.418 31.5452 145.302 30.2277C146.087 28.9101 147.266 27.9439 148.738 27.1534C150.211 26.4507 151.88 26.0115 153.745 26.0115C155.512 26.0115 157.083 26.3628 158.556 27.0655C160.029 27.7682 161.109 28.7344 161.992 29.9642C162.876 31.1939 163.269 32.6871 163.269 34.4438L148.935 36.9911C149.425 37.9574 150.113 38.66 151.094 39.1871C152.076 39.7141 153.254 39.9776 154.629 39.9776C156.396 39.9776 158.065 39.3627 159.44 38.133ZM149.622 30.6669C148.64 31.6331 148.149 32.8628 148.149 34.4438L158.752 32.5993C158.458 31.5452 157.869 30.7547 156.887 30.1398C156.003 29.525 154.825 29.1736 153.549 29.1736C151.88 29.2614 150.604 29.7006 149.622 30.6669Z" fill="#281A61"/>
<path d="M177.995 26.0991V29.8761C177.602 29.7883 177.308 29.7883 177.013 29.7883C175.344 29.7883 173.97 30.2275 172.988 31.1059C172.006 31.9842 171.515 33.3018 171.515 34.9707V43.1396H167.097V26.3626H171.319V28.8221C172.595 26.9775 174.853 26.0991 177.995 26.0991Z" fill="#281A61"/>
<path d="M210.198 31.9843H214.616V43.491C214.616 43.491 206.761 43.8424 204.012 43.8424C201.656 43.8424 199.594 43.4032 197.631 42.5248C195.667 41.6464 194.096 40.3289 193.016 38.5721C191.838 36.8154 191.249 34.7951 191.249 32.4235C191.249 30.1398 191.838 28.1195 193.016 26.3627C194.195 24.606 195.864 23.2006 197.925 22.1466C199.987 21.1803 202.343 20.6533 204.896 20.6533C206.958 20.6533 208.921 21.0047 210.689 21.6195C212.456 22.2344 213.83 23.1128 215.008 24.3425L212.063 26.8898C210.099 25.133 207.841 24.3425 205.092 24.3425C203.325 24.3425 201.754 24.6938 200.38 25.3965C199.005 26.0992 197.925 26.9776 197.14 28.2073C196.355 29.4371 195.962 30.8425 195.962 32.4235C195.962 34.0924 196.355 35.4978 197.14 36.7276C197.925 37.9573 198.907 38.8357 200.282 39.4505C201.558 40.0654 203.031 40.3289 204.503 40.3289C205.583 40.3289 206.27 40.3289 207.35 40.241C209.118 39.9775 209.903 39.2748 210.296 38.5721V31.9843H210.198Z" fill="#281A61"/>
<path d="M66.96 59.2747V50.3947H72.816V51.4267H68.136V54.3547H72.264V55.3867H68.136V59.2747H66.96ZM76.8481 59.3947C76.1681 59.3947 75.5961 59.2387 75.1321 58.9267C74.6681 58.6067 74.3161 58.1947 74.0761 57.6907C73.8361 57.1867 73.7161 56.6547 73.7161 56.0947C73.7161 55.5267 73.8361 54.9947 74.0761 54.4987C74.3161 53.9947 74.6681 53.5867 75.1321 53.2747C75.5961 52.9547 76.1681 52.7947 76.8481 52.7947C77.5281 52.7947 78.1001 52.9547 78.5641 53.2747C79.0281 53.5867 79.3801 53.9947 79.6201 54.4987C79.8601 54.9947 79.9801 55.5267 79.9801 56.0947C79.9801 56.6547 79.8601 57.1867 79.6201 57.6907C79.3801 58.1947 79.0281 58.6067 78.5641 58.9267C78.1001 59.2387 77.5281 59.3947 76.8481 59.3947ZM76.8481 58.3987C77.2801 58.3987 77.6401 58.2907 77.9281 58.0747C78.2241 57.8507 78.4441 57.5627 78.5881 57.2107C78.7401 56.8587 78.8161 56.4867 78.8161 56.0947C78.8161 55.6947 78.7401 55.3227 78.5881 54.9787C78.4441 54.6267 78.2241 54.3427 77.9281 54.1267C77.6401 53.9027 77.2801 53.7907 76.8481 53.7907C76.4241 53.7907 76.0641 53.9027 75.7681 54.1267C75.4721 54.3427 75.2481 54.6267 75.0961 54.9787C74.9521 55.3227 74.8801 55.6947 74.8801 56.0947C74.8801 56.4867 74.9521 56.8587 75.0961 57.2107C75.2481 57.5627 75.4721 57.8507 75.7681 58.0747C76.0641 58.2907 76.4241 58.3987 76.8481 58.3987ZM81.5353 59.2747V52.9147H82.6753V53.7067H82.7233C82.8593 53.4667 83.0593 53.2547 83.3233 53.0707C83.5873 52.8867 83.9593 52.7947 84.4393 52.7947C84.5753 52.7947 84.6993 52.8027 84.8113 52.8187C84.9233 52.8267 84.9793 52.8307 84.9793 52.8307V53.9227C84.9793 53.9227 84.9153 53.9187 84.7873 53.9107C84.6673 53.8947 84.5393 53.8867 84.4033 53.8867C83.8513 53.8867 83.4233 54.0467 83.1193 54.3667C82.8233 54.6787 82.6753 55.1907 82.6753 55.9027V59.2747H81.5353ZM89.1202 59.2747V50.3947H92.5402C93.1082 50.3947 93.5922 50.4987 93.9922 50.7067C94.4002 50.9067 94.7122 51.1787 94.9282 51.5227C95.1442 51.8587 95.2522 52.2267 95.2522 52.6267C95.2522 53.0667 95.1722 53.4227 95.0122 53.6947C94.8522 53.9667 94.6722 54.1747 94.4722 54.3187C94.2722 54.4547 94.1122 54.5467 93.9922 54.5947V54.6667C94.1842 54.7227 94.4042 54.8307 94.6522 54.9907C94.9082 55.1427 95.1282 55.3627 95.3122 55.6507C95.4962 55.9387 95.5882 56.3147 95.5882 56.7787C95.5882 57.1867 95.4882 57.5827 95.2882 57.9667C95.0882 58.3507 94.7722 58.6667 94.3402 58.9147C93.9082 59.1547 93.3362 59.2747 92.6242 59.2747H89.1202ZM92.4922 51.4147H90.2962V54.2467H92.4922C92.8762 54.2467 93.1842 54.1787 93.4162 54.0427C93.6562 53.9067 93.8282 53.7307 93.9322 53.5147C94.0442 53.2907 94.1002 53.0627 94.1002 52.8307C94.1002 52.5907 94.0442 52.3627 93.9322 52.1467C93.8282 51.9307 93.6562 51.7547 93.4162 51.6187C93.1842 51.4827 92.8762 51.4147 92.4922 51.4147ZM92.5882 55.1947H90.2962V58.2547H92.5882C93.0282 58.2547 93.3802 58.1827 93.6442 58.0387C93.9082 57.8867 94.1002 57.6947 94.2202 57.4627C94.3482 57.2227 94.4122 56.9747 94.4122 56.7187C94.4122 56.4627 94.3482 56.2187 94.2202 55.9867C94.1002 55.7547 93.9082 55.5667 93.6442 55.4227C93.3802 55.2707 93.0282 55.1947 92.5882 55.1947ZM99.1621 59.3947C98.5301 59.3947 98.0261 59.1987 97.6501 58.8067C97.2741 58.4147 97.0861 57.8707 97.0861 57.1747V52.9147H98.2261V57.1147C98.2261 57.5307 98.3381 57.8507 98.5621 58.0747C98.7941 58.2987 99.0981 58.4107 99.4741 58.4107C99.8581 58.4107 100.166 58.3107 100.398 58.1107C100.63 57.9107 100.798 57.6547 100.902 57.3427C101.006 57.0307 101.058 56.7107 101.058 56.3827V52.9147H102.198V59.2747H101.058V58.3627H100.986C100.938 58.4587 100.846 58.5907 100.71 58.7587C100.574 58.9187 100.382 59.0667 100.134 59.2027C99.8861 59.3307 99.5621 59.3947 99.1621 59.3947ZM106.211 59.3947C105.723 59.3947 105.319 59.3267 104.999 59.1907C104.687 59.0547 104.439 58.8867 104.255 58.6867C104.071 58.4787 103.935 58.2747 103.847 58.0747C103.759 57.8667 103.703 57.6947 103.679 57.5587C103.655 57.4227 103.643 57.3547 103.643 57.3547H104.795C104.795 57.3547 104.807 57.4107 104.831 57.5227C104.863 57.6267 104.923 57.7507 105.011 57.8947C105.107 58.0307 105.251 58.1547 105.443 58.2667C105.643 58.3707 105.907 58.4227 106.235 58.4227C106.611 58.4227 106.903 58.3347 107.111 58.1587C107.319 57.9747 107.423 57.7507 107.423 57.4867C107.423 57.2547 107.339 57.0707 107.171 56.9347C107.011 56.7987 106.779 56.6947 106.475 56.6227L105.611 56.4187C105.291 56.3387 104.991 56.2307 104.711 56.0947C104.431 55.9587 104.203 55.7747 104.027 55.5427C103.859 55.3027 103.775 55.0067 103.775 54.6547C103.775 54.1107 103.979 53.6667 104.387 53.3227C104.795 52.9707 105.327 52.7947 105.983 52.7947C106.423 52.7947 106.787 52.8587 107.075 52.9867C107.363 53.1067 107.591 53.2587 107.759 53.4427C107.935 53.6267 108.063 53.8107 108.143 53.9947C108.231 54.1787 108.287 54.3347 108.311 54.4627C108.335 54.5827 108.347 54.6427 108.347 54.6427H107.243C107.243 54.6427 107.231 54.5987 107.207 54.5107C107.183 54.4147 107.127 54.3107 107.039 54.1987C106.959 54.0787 106.835 53.9747 106.667 53.8867C106.499 53.7907 106.275 53.7427 105.995 53.7427C105.611 53.7427 105.331 53.8307 105.155 54.0067C104.979 54.1827 104.891 54.3747 104.891 54.5827C104.891 54.7827 104.971 54.9467 105.131 55.0747C105.299 55.1947 105.515 55.2867 105.779 55.3507L106.655 55.5547C107.199 55.6827 107.647 55.8947 107.999 56.1907C108.359 56.4787 108.539 56.8947 108.539 57.4387C108.539 57.7907 108.447 58.1187 108.263 58.4227C108.079 58.7187 107.815 58.9547 107.471 59.1307C107.127 59.3067 106.707 59.3947 106.211 59.3947ZM110.721 51.7027C110.505 51.7027 110.325 51.6307 110.181 51.4867C110.045 51.3427 109.977 51.1707 109.977 50.9707C109.977 50.7627 110.045 50.5867 110.181 50.4427C110.325 50.2987 110.505 50.2267 110.721 50.2267C110.929 50.2267 111.105 50.2987 111.249 50.4427C111.393 50.5867 111.465 50.7627 111.465 50.9707C111.465 51.1707 111.393 51.3427 111.249 51.4867C111.105 51.6307 110.929 51.7027 110.721 51.7027ZM110.157 59.2747V52.9147H111.297V59.2747H110.157ZM113.141 59.2747V52.9147H114.281V53.8387H114.353C114.409 53.7427 114.501 53.6107 114.629 53.4427C114.765 53.2747 114.957 53.1267 115.205 52.9987C115.453 52.8627 115.765 52.7947 116.141 52.7947C116.605 52.7947 117.001 52.9027 117.329 53.1187C117.657 53.3267 117.905 53.6107 118.073 53.9707C118.249 54.3307 118.337 54.7347 118.337 55.1827V59.2747H117.197V55.2547C117.197 54.8307 117.077 54.4787 116.837 54.1987C116.605 53.9187 116.265 53.7787 115.817 53.7787C115.457 53.7787 115.165 53.8707 114.941 54.0547C114.717 54.2307 114.549 54.4667 114.437 54.7627C114.333 55.0507 114.281 55.3587 114.281 55.6867V59.2747H113.141ZM122.912 59.3947C122.392 59.3947 121.94 59.3027 121.556 59.1187C121.18 58.9267 120.868 58.6707 120.62 58.3507C120.38 58.0307 120.2 57.6787 120.08 57.2947C119.96 56.9027 119.9 56.5027 119.9 56.0947C119.9 55.6947 119.956 55.2987 120.068 54.9067C120.188 54.5147 120.368 54.1587 120.608 53.8387C120.856 53.5187 121.164 53.2667 121.532 53.0827C121.908 52.8907 122.352 52.7947 122.864 52.7947C123.408 52.7947 123.888 52.9187 124.304 53.1667C124.72 53.4147 125.048 53.7827 125.288 54.2707C125.528 54.7587 125.648 55.3707 125.648 56.1067V56.4427H121.052C121.076 56.8027 121.16 57.1347 121.304 57.4387C121.456 57.7347 121.668 57.9747 121.94 58.1587C122.212 58.3347 122.536 58.4227 122.912 58.4227C123.24 58.4227 123.504 58.3707 123.704 58.2667C123.912 58.1547 124.076 58.0267 124.196 57.8827C124.316 57.7387 124.396 57.6147 124.436 57.5107C124.484 57.3987 124.508 57.3427 124.508 57.3427H125.576C125.576 57.3427 125.556 57.4147 125.516 57.5587C125.476 57.6947 125.404 57.8627 125.3 58.0627C125.196 58.2627 125.044 58.4667 124.844 58.6747C124.644 58.8747 124.388 59.0467 124.076 59.1907C123.764 59.3267 123.376 59.3947 122.912 59.3947ZM121.064 55.5547H124.532C124.516 55.1387 124.428 54.8027 124.268 54.5467C124.108 54.2827 123.904 54.0867 123.656 53.9587C123.408 53.8307 123.144 53.7667 122.864 53.7667C122.36 53.7667 121.948 53.9307 121.628 54.2587C121.308 54.5787 121.12 55.0107 121.064 55.5547ZM129.531 59.3947C129.043 59.3947 128.639 59.3267 128.319 59.1907C128.007 59.0547 127.759 58.8867 127.575 58.6867C127.391 58.4787 127.255 58.2747 127.167 58.0747C127.079 57.8667 127.023 57.6947 126.999 57.5587C126.975 57.4227 126.963 57.3547 126.963 57.3547H128.115C128.115 57.3547 128.127 57.4107 128.151 57.5227C128.183 57.6267 128.243 57.7507 128.331 57.8947C128.427 58.0307 128.571 58.1547 128.763 58.2667C128.963 58.3707 129.227 58.4227 129.555 58.4227C129.931 58.4227 130.223 58.3347 130.431 58.1587C130.639 57.9747 130.743 57.7507 130.743 57.4867C130.743 57.2547 130.659 57.0707 130.491 56.9347C130.331 56.7987 130.099 56.6947 129.795 56.6227L128.931 56.4187C128.611 56.3387 128.311 56.2307 128.031 56.0947C127.751 55.9587 127.523 55.7747 127.347 55.5427C127.179 55.3027 127.095 55.0067 127.095 54.6547C127.095 54.1107 127.299 53.6667 127.707 53.3227C128.115 52.9707 128.647 52.7947 129.303 52.7947C129.743 52.7947 130.107 52.8587 130.395 52.9867C130.683 53.1067 130.911 53.2587 131.079 53.4427C131.255 53.6267 131.383 53.8107 131.463 53.9947C131.551 54.1787 131.607 54.3347 131.631 54.4627C131.655 54.5827 131.667 54.6427 131.667 54.6427H130.563C130.563 54.6427 130.551 54.5987 130.527 54.5107C130.503 54.4147 130.447 54.3107 130.359 54.1987C130.279 54.0787 130.155 53.9747 129.987 53.8867C129.819 53.7907 129.595 53.7427 129.315 53.7427C128.931 53.7427 128.651 53.8307 128.475 54.0067C128.299 54.1827 128.211 54.3747 128.211 54.5827C128.211 54.7827 128.291 54.9467 128.451 55.0747C128.619 55.1947 128.835 55.2867 129.099 55.3507L129.975 55.5547C130.519 55.6827 130.967 55.8947 131.319 56.1907C131.679 56.4787 131.859 56.8947 131.859 57.4387C131.859 57.7907 131.767 58.1187 131.583 58.4227C131.399 58.7187 131.135 58.9547 130.791 59.1307C130.447 59.3067 130.027 59.3947 129.531 59.3947ZM135.625 59.3947C135.137 59.3947 134.733 59.3267 134.413 59.1907C134.101 59.0547 133.853 58.8867 133.669 58.6867C133.485 58.4787 133.349 58.2747 133.261 58.0747C133.173 57.8667 133.117 57.6947 133.093 57.5587C133.069 57.4227 133.057 57.3547 133.057 57.3547H134.209C134.209 57.3547 134.221 57.4107 134.245 57.5227C134.277 57.6267 134.337 57.7507 134.425 57.8947C134.521 58.0307 134.665 58.1547 134.857 58.2667C135.057 58.3707 135.321 58.4227 135.649 58.4227C136.025 58.4227 136.317 58.3347 136.525 58.1587C136.733 57.9747 136.837 57.7507 136.837 57.4867C136.837 57.2547 136.753 57.0707 136.585 56.9347C136.425 56.7987 136.193 56.6947 135.889 56.6227L135.025 56.4187C134.705 56.3387 134.405 56.2307 134.125 56.0947C133.845 55.9587 133.617 55.7747 133.441 55.5427C133.273 55.3027 133.189 55.0067 133.189 54.6547C133.189 54.1107 133.393 53.6667 133.801 53.3227C134.209 52.9707 134.741 52.7947 135.397 52.7947C135.837 52.7947 136.201 52.8587 136.489 52.9867C136.777 53.1067 137.005 53.2587 137.173 53.4427C137.349 53.6267 137.477 53.8107 137.557 53.9947C137.645 54.1787 137.701 54.3347 137.725 54.4627C137.749 54.5827 137.761 54.6427 137.761 54.6427H136.657C136.657 54.6427 136.645 54.5987 136.621 54.5107C136.597 54.4147 136.541 54.3107 136.453 54.1987C136.373 54.0787 136.249 53.9747 136.081 53.8867C135.913 53.7907 135.689 53.7427 135.409 53.7427C135.025 53.7427 134.745 53.8307 134.569 54.0067C134.393 54.1827 134.305 54.3747 134.305 54.5827C134.305 54.7827 134.385 54.9467 134.545 55.0747C134.713 55.1947 134.929 55.2867 135.193 55.3507L136.069 55.5547C136.613 55.6827 137.061 55.8947 137.413 56.1907C137.773 56.4787 137.953 56.8947 137.953 57.4387C137.953 57.7907 137.861 58.1187 137.677 58.4227C137.493 58.7187 137.229 58.9547 136.885 59.1307C136.541 59.3067 136.121 59.3947 135.625 59.3947Z" fill="#252831"/>
<defs>
<linearGradient id="paint0_linear_748_274" x1="34.9693" y1="32.4021" x2="-14.2667" y2="13.5687" gradientUnits="userSpaceOnUse">
<stop offset="2.66389e-07" stop-color="#164DFF"/>
<stop offset="0.0622876" stop-color="#1A5BFE"/>
<stop offset="0.2179" stop-color="#2179FB"/>
<stop offset="0.3825" stop-color="#2790F9"/>
<stop offset="0.558" stop-color="#2CA1F7"/>
<stop offset="0.7519" stop-color="#2EABF6"/>
<stop offset="1" stop-color="#2FAEF6"/>
</linearGradient>
<radialGradient id="paint1_radial_748_274" cx="0" cy="0" r="1" gradientUnits="userSpaceOnUse" gradientTransform="translate(26.6526 32.2201) scale(13.2026 14.6067)">
<stop stop-color="white"/>
<stop offset="0.4254" stop-color="#FDFEFF"/>
<stop offset="0.5786" stop-color="#F6F9FF"/>
<stop offset="0.6878" stop-color="#EBF1FF"/>
<stop offset="0.7761" stop-color="#DAE5FF"/>
<stop offset="0.8518" stop-color="#C4D6FF"/>
<stop offset="0.9187" stop-color="#A8C3FF"/>
<stop offset="0.9778" stop-color="#89AEFF"/>
<stop offset="1" stop-color="#7BA4FF"/>
</radialGradient>
<linearGradient id="paint2_linear_748_274" x1="8.81135" y1="22.4161" x2="29.2787" y2="59.6063" gradientUnits="userSpaceOnUse">
<stop offset="2.66389e-07" stop-color="#164DFF"/>
<stop offset="0.0622876" stop-color="#1A5BFE"/>
<stop offset="0.2179" stop-color="#2179FB"/>
<stop offset="0.3825" stop-color="#2790F9"/>
<stop offset="0.558" stop-color="#2CA1F7"/>
<stop offset="0.7519" stop-color="#2EABF6"/>
<stop offset="1" stop-color="#2FAEF6"/>
</linearGradient>
<linearGradient id="paint3_linear_748_274" x1="38.4066" y1="53.2459" x2="42.6505" y2="14.2674" gradientUnits="userSpaceOnUse">
<stop offset="2.66389e-07" stop-color="#164DFF"/>
<stop offset="0.0622876" stop-color="#1A5BFE"/>
<stop offset="0.2179" stop-color="#2179FB"/>
<stop offset="0.3825" stop-color="#2790F9"/>
<stop offset="0.558" stop-color="#2CA1F7"/>
<stop offset="0.7519" stop-color="#2EABF6"/>
<stop offset="1" stop-color="#2FAEF6"/>
</linearGradient>
<radialGradient id="paint4_radial_748_274" cx="0" cy="0" r="1" gradientUnits="userSpaceOnUse" gradientTransform="translate(28.4298 29.0943) scale(4.86484 4.35245)">
<stop stop-color="#1CF3FF"/>
<stop offset="0.0736449" stop-color="#1AE8FF"/>
<stop offset="0.3439" stop-color="#14C4FF"/>
<stop offset="0.5966" stop-color="#0FA9FF"/>
<stop offset="0.8228" stop-color="#0C9AFF"/>
<stop offset="1" stop-color="#0B94FF"/>
</radialGradient>
</defs>
</svg>
