<svg width="23" height="16" viewBox="0 0 23 16" fill="none" xmlns="http://www.w3.org/2000/svg">
<path d="M22.1538 13.5385C22.1538 14.1913 21.8945 14.8174 21.4329 15.279C20.9713 15.7407 20.3451 16 19.6923 16H2.46154C1.8087 16 1.1826 15.7407 0.720968 15.279C0.25934 14.8174 0 14.1913 0 13.5385V2.46154C0 1.8087 0.25934 1.1826 0.720968 0.720968C1.1826 0.25934 1.8087 0 2.46154 0H19.6923C20.3451 0 20.9713 0.25934 21.4329 0.720968C21.8945 1.1826 22.1538 1.8087 22.1538 2.46154V13.5385Z" fill="#EEEEEE"/>
<path d="M13.1945 4.97541C12.3923 4.41383 11.3999 4.19391 10.4355 4.36402C9.4712 4.53413 8.61394 5.08033 8.05231 5.88248C7.78711 6.28395 7.68907 6.77307 7.77905 7.24574C7.86903 7.7184 8.13992 8.13729 8.53408 8.41324C8.92824 8.68919 9.41453 8.80041 9.88945 8.72323C10.3644 8.64606 10.7904 8.38658 11.0769 8.00002C11.216 7.80142 11.3928 7.63216 11.5973 7.5019C11.8018 7.37165 12.03 7.28294 12.2688 7.24085C12.5075 7.19877 12.7523 7.20412 12.989 7.25662C13.2257 7.30911 13.4497 7.40771 13.6483 7.54679C13.8469 7.68587 14.0162 7.8627 14.1464 8.0672C14.2767 8.27169 14.3654 8.49984 14.4075 8.73862C14.4496 8.97739 14.4442 9.22212 14.3917 9.45882C14.3392 9.69553 14.2406 9.91958 14.1015 10.1182C14.3797 9.72095 14.5769 9.27282 14.6818 8.79938C14.7868 8.32594 14.7975 7.83647 14.7132 7.35891C14.629 6.88134 14.4515 6.42505 14.1909 6.01609C13.9303 5.60712 13.5917 5.2535 13.1945 4.97541Z" fill="#C60C30"/>
<path d="M13.648 7.54707C13.247 7.26622 12.7509 7.15616 12.2687 7.2411C11.7865 7.32603 11.3579 7.59901 11.077 7.99999C10.7912 8.38858 10.3647 8.64992 9.88867 8.72813C9.41269 8.80634 8.92499 8.69521 8.52988 8.41851C8.13476 8.14181 7.86359 7.7215 7.77435 7.24745C7.68511 6.77341 7.78488 6.28327 8.05234 5.88184C7.76607 6.27862 7.56151 6.72835 7.45056 7.20488C7.33961 7.68142 7.32447 8.17525 7.40603 8.65768C7.4876 9.14011 7.66423 9.60152 7.92566 10.0151C8.1871 10.4287 8.52813 10.7862 8.92893 11.0668C9.32973 11.3474 9.7823 11.5456 10.2604 11.6498C10.7384 11.754 11.2324 11.7621 11.7136 11.6737C12.1949 11.5854 12.6537 11.4022 13.0636 11.135C13.4734 10.8677 13.826 10.5216 14.101 10.1169C14.2401 9.91847 14.3387 9.69456 14.3912 9.45798C14.4438 9.2214 14.4491 8.97679 14.4071 8.73812C14.365 8.49946 14.2763 8.27143 14.1461 8.06706C14.0158 7.86269 13.8466 7.68599 13.648 7.54707Z" fill="#003478"/>
<path d="M14.9747 12.6597L16.1612 11.2455L16.6326 11.6412L15.4461 13.0554L14.9747 12.6597ZM16.5562 10.7748L17.7427 9.36122L18.2141 9.75691L17.0276 11.1704L16.5562 10.7748ZM15.9175 13.4523L17.1039 12.0388L17.5753 12.4344L16.3889 13.848L15.9175 13.4523ZM17.5002 11.5655L18.6879 10.152L19.1593 10.5483L17.9716 11.9612L17.5002 11.5655ZM16.8596 14.2437L18.0473 12.8301L18.5181 13.2258L17.331 14.6394L16.8596 14.2437ZM18.4418 12.3575L19.6276 10.9421L20.0996 11.3378L18.9138 12.7532L18.4418 12.3575ZM18.4442 3.64245L18.9156 3.24675L20.1033 4.66152L19.6313 5.05722L18.4442 3.64245ZM16.8615 1.75568L17.3329 1.35999L18.5193 2.77475L18.0473 3.16983L16.8615 1.75568ZM15.9181 2.54829L16.3895 2.1526L19.1587 5.45229L18.6873 5.84799L15.9181 2.54829ZM14.9753 3.33845L15.4473 2.94275L16.6332 4.35691L16.1618 4.75199L14.9753 3.33845ZM16.5569 5.2246L17.0282 4.82891L18.2159 6.24245L17.7452 6.63814L16.5569 5.2246ZM3.9384 9.75629L4.40978 9.3606L7.1784 12.6609L6.7064 13.0566L3.9384 9.75629ZM2.99686 10.5477L3.46763 10.1526L4.65471 11.5668L4.18271 11.9624L2.99686 10.5477ZM4.57655 12.4344L5.04794 12.0388L6.23563 13.4523L5.76425 13.848L4.57655 12.4344ZM2.05286 11.3384L2.52425 10.9428L5.29348 14.2424L4.82148 14.6381L2.05286 11.3384ZM2.05225 4.66029L4.82025 1.3606L5.29225 1.75568L2.52302 5.05599L2.05225 4.66029ZM2.99502 5.45229L5.76425 2.15199L6.23563 2.54768L3.4664 5.84737L2.99502 5.45229ZM3.9384 6.24306L6.70763 2.94275L7.17902 3.33845L4.40978 6.63875L3.9384 6.24306Z" fill="#292F33"/>
</svg>
