<svg width="23" height="16" viewBox="0 0 23 16" fill="none" xmlns="http://www.w3.org/2000/svg">
<path d="M19.9111 0H2.48889C1.82879 0 1.19574 0.25934 0.728979 0.720968C0.262222 1.1826 0 1.8087 0 2.46154L0 13.5385C0 14.1913 0.262222 14.8174 0.728979 15.279C1.19574 15.7407 1.82879 16 2.48889 16H19.9111C20.5712 16 21.2043 15.7407 21.671 15.279C22.1378 14.8174 22.4 14.1913 22.4 13.5385V2.46154C22.4 1.8087 22.1378 1.1826 21.671 0.720968C21.2043 0.25934 20.5712 0 19.9111 0Z" fill="#F9281F"/>
<path d="M12.2908 6.79266L11.2001 3.47266L10.1093 6.79266H6.58008L9.43546 8.84373L8.3447 12.1637L11.2001 10.112L14.0555 12.1637L12.9647 8.84373L15.8201 6.79266H12.2908Z" fill="#FFFF00"/>
</svg>
