<svg fill="none" height="50" viewBox="0 0 50 50" width="50" xmlns="http://www.w3.org/2000/svg"><circle cx="25" cy="25" fill="#2790f9" r="25"/><g fill="#fff"><path d="m36.8546 29.6486c-2.4912 0-4.5196-2.0284-4.5196-4.5196s2.0284-4.5196 4.5196-4.5196 4.5196 2.0284 4.5196 4.5196-2.0284 4.5196-4.5196 4.5196zm0-7.2314c-1.4945 0-2.7118 1.2173-2.7118 2.7118s1.2173 2.7118 2.7118 2.7118 2.7118-1.2173 2.7118-2.7118-1.2173-2.7118-2.7118-2.7118z"/><path d="m31.0436 29.6487h-1.7218c-.4752 0-.8609-.2571-.8609-.5739v-9.7567h2.5827z"/><path d="m25.3623 20.9107v.6255c-.7581-.5737-1.691-.9268-2.7118-.9268-2.4912 0-4.5196 2.0284-4.5196 4.5196s2.0284 4.5196 4.5196 4.5196c1.0208 0 1.9537-.3531 2.7118-.9268v.3242c0 .3327.2699.6026.6026.6026h1.2052v-8.7379zm-2.7118 6.9301c-1.4945 0-2.7118-1.2173-2.7118-2.7118s1.2173-2.7118 2.7118-2.7118 2.7118 1.2173 2.7118 2.7118-1.2173 2.7118-2.7118 2.7118z"/><path d="m19.4214 19.3181h-9.7229v1.7218h6.4669l-6.77074 7.461h.0316c-.1981.2421-.33544.5314-.33544.8608v.287h9.11518c.3355 0 .6077-.2571.6077-.5739v-1.1479h-6.4669l6.7708-7.4609h-.0316c.1981-.2422.3354-.5315.3354-.8609z"/></g></svg>