<svg width="30" height="30" viewBox="0 0 30 30" fill="none" xmlns="http://www.w3.org/2000/svg">
<path d="M15.5344 3.52266C15.4684 3.44557 15.3865 3.38369 15.2943 3.34126C15.2021 3.29883 15.1018 3.27686 15.0003 3.27686C14.8988 3.27686 14.7985 3.29883 14.7063 3.34126C14.6141 3.38369 14.5322 3.44557 14.4662 3.52266C12.6111 5.69239 6.5625 13.1936 6.5625 18.75C6.5625 23.9279 9.82266 27.1875 15 27.1875C20.1773 27.1875 23.4375 23.9279 23.4375 18.75C23.4375 13.1936 17.3889 5.69239 15.5344 3.52266ZM15.9375 24.1406C15.8249 24.1409 15.7139 24.1141 15.6138 24.0625C15.5137 24.0109 15.4274 23.936 15.3623 23.8441C15.2972 23.7522 15.2551 23.646 15.2396 23.5345C15.224 23.4229 15.2355 23.3093 15.273 23.2031C15.321 23.0646 15.4114 22.9447 15.5315 22.8605C15.6515 22.7764 15.795 22.7322 15.9416 22.7344C16.8723 22.7324 17.7643 22.3618 18.4224 21.7037C19.0805 21.0456 19.4511 20.1536 19.4531 19.2229C19.451 19.0763 19.4951 18.9327 19.5793 18.8127C19.6635 18.6927 19.7833 18.6022 19.9219 18.5543C20.0281 18.5168 20.1417 18.5053 20.2532 18.5208C20.3648 18.5363 20.471 18.5784 20.5628 18.6436C20.6547 18.7087 20.7296 18.7949 20.7812 18.895C20.8328 18.9951 20.8596 19.1061 20.8594 19.2188C20.858 20.5237 20.339 21.7748 19.4163 22.6975C18.4935 23.6202 17.2424 24.1392 15.9375 24.1406Z" fill="#2790F9"/>
</svg>
