<svg width="30" height="30" viewBox="0 0 30 30" fill="none" xmlns="http://www.w3.org/2000/svg">
<path d="M21.25 2.5C21.9375 2.5 22.5262 2.745 23.0162 3.235C23.5062 3.725 23.7508 4.31333 23.75 5V7.5C23.75 8.1875 23.505 8.77625 23.015 9.26625C22.525 9.75625 21.9367 10.0008 21.25 10L21.25 16.25C21.9375 16.25 22.5262 16.495 23.0162 16.985C23.5062 17.475 23.7508 18.0633 23.75 18.75V21.25C23.75 21.9375 23.505 22.5262 23.015 23.0162C22.525 23.5062 21.9367 23.7508 21.25 23.75H17.5V25C17.8542 25 18.1512 25.12 18.3912 25.36C18.6312 25.6 18.7508 25.8967 18.75 26.25C18.75 26.6042 18.63 26.9012 18.39 27.1412C18.15 27.3812 17.8533 27.5008 17.5 27.5H12.5C12.1458 27.5 11.8487 27.38 11.6087 27.14C11.3687 26.9 11.2492 26.6033 11.25 26.25C11.25 25.8958 11.37 25.5987 11.61 25.3587C11.85 25.1187 12.1467 24.9992 12.5 25V23.75H8.75C8.0625 23.75 7.47375 23.505 6.98375 23.015C6.49375 22.525 6.24917 21.9367 6.25 21.25V18.75C6.25 18.0625 6.495 17.4737 6.985 16.9837C7.475 16.4937 8.06333 16.2492 8.75 16.25V10C8.0625 10 7.47375 9.755 6.98375 9.265C6.49375 8.775 6.24917 8.18666 6.25 7.5V5C6.25 4.3125 6.495 3.72375 6.985 3.23375C7.475 2.74375 8.06333 2.49916 8.75 2.5L21.25 2.5ZM21.25 5L8.75 5L8.75 7.5L11.25 7.5V16.25H12.5C12.8542 16.25 13.1512 16.37 13.3912 16.61C13.6312 16.85 13.7508 17.1467 13.75 17.5C13.75 17.8542 13.63 18.1512 13.39 18.3912C13.15 18.6312 12.8533 18.7508 12.5 18.75H8.75L8.75 21.25H21.25V18.75H18.75V10H17.5C17.1458 10 16.8487 9.88 16.6087 9.64C16.3687 9.4 16.2492 9.10333 16.25 8.75C16.25 8.39583 16.37 8.09875 16.61 7.85875C16.85 7.61875 17.1467 7.49916 17.5 7.5H21.25V5Z" fill="#2790F9"/>
</svg>
