<svg width="30" height="30" viewBox="0 0 30 30" fill="none" xmlns="http://www.w3.org/2000/svg">
<path d="M8.75 27.5C8.0625 27.5 7.47375 27.255 6.98375 26.765C6.49375 26.275 6.24917 25.6867 6.25 25V22.5C6.25 21.8125 6.495 21.2238 6.985 20.7338C7.475 20.2438 8.06334 19.9992 8.75 20V13.75C8.0625 13.75 7.47375 13.505 6.98375 13.015C6.49375 12.525 6.24917 11.9367 6.25 11.25V8.75C6.25 8.0625 6.495 7.47375 6.985 6.98375C7.475 6.49375 8.06334 6.24917 8.75 6.25H12.5V5C12.1458 5 11.8488 4.88 11.6088 4.64C11.3688 4.4 11.2492 4.10334 11.25 3.75C11.25 3.39584 11.37 3.09875 11.61 2.85875C11.85 2.61875 12.1467 2.49917 12.5 2.5H17.5C17.8542 2.5 18.1513 2.62 18.3913 2.86C18.6313 3.1 18.7508 3.39667 18.75 3.75C18.75 4.10417 18.63 4.40125 18.39 4.64125C18.15 4.88125 17.8533 5.00084 17.5 5V6.25H21.25C21.9375 6.25 22.5263 6.495 23.0163 6.985C23.5063 7.475 23.7508 8.06334 23.75 8.75V11.25C23.75 11.9375 23.505 12.5263 23.015 13.0163C22.525 13.5063 21.9367 13.7508 21.25 13.75V20C21.9375 20 22.5263 20.245 23.0163 20.735C23.5063 21.225 23.7508 21.8133 23.75 22.5V25C23.75 25.6875 23.505 26.2763 23.015 26.7663C22.525 27.2563 21.9367 27.5008 21.25 27.5H8.75ZM8.75 25H21.25V22.5H18.75V13.75C18.75 13.75 18.7492 12.9082 18.75 12.5548L18.7656 11.25H21.25V8.75H8.75V11.25H11.25V20H12.5C12.8542 20 13.1513 20.12 13.3913 20.36C13.6313 20.6 13.7508 20.8967 13.75 21.25C13.75 21.6042 13.63 21.9013 13.39 22.1413C13.15 22.3813 12.8533 22.5008 12.5 22.5H8.75V25Z" fill="#2790F9"/>
<path d="M23.75 22.5V25L25 25C25 25 26 24.7 26 23.6C26 22.5 25 22.5 25 22.5L23.75 22.5Z" fill="#2790F9"/>
</svg>
