<svg width="31" height="30" viewBox="0 0 31 30" fill="none" xmlns="http://www.w3.org/2000/svg">
<path d="M3.25617 10.9888V5.0301C3.25617 4.6431 3.54867 4.53172 3.73054 4.4556C3.91242 4.37947 8.10529 2.85585 8.23654 2.80935C8.36779 2.7621 8.63104 2.78947 8.74654 2.80935C10.1892 3.33022 13.1359 4.40047 13.3752 4.50772C13.614 4.61572 13.713 4.90035 13.7325 5.02935V10.9416C13.7325 11.2135 13.5274 11.4516 13.416 11.4921L8.69367 13.2325C8.59504 13.2655 8.41429 13.2737 8.30104 13.2325C6.78185 12.677 5.26235 12.1224 3.74254 11.5686C3.36754 11.4336 3.24042 11.1178 3.25617 10.9888Z" fill="#52C3E4"/>
<path d="M8.74586 2.80897C10.1896 3.33022 13.2342 4.4496 13.3749 4.5081C13.5155 4.56697 13.574 4.66672 13.6269 4.73685L8.49986 6.55297L3.34961 4.7016C3.45123 4.5801 3.62186 4.50097 3.73023 4.4556C3.91211 4.37947 8.10498 2.85585 8.23623 2.80935C8.36748 2.7621 8.63073 2.78947 8.74623 2.80935L8.74586 2.80897Z" fill="url(#paint0_linear_3456_1071)"/>
<path d="M8.74586 2.80897C10.1896 3.33022 13.2342 4.4496 13.3749 4.5081C13.5155 4.56697 13.574 4.66672 13.6269 4.73685L8.49986 6.55297L3.34961 4.7016C3.45123 4.5801 3.62186 4.50097 3.73023 4.4556C3.91211 4.37947 8.10498 2.85585 8.23623 2.80935C8.36748 2.7621 8.63073 2.78947 8.74623 2.80935L8.74586 2.80897Z" fill="url(#paint1_linear_3456_1071)"/>
<path d="M8.74586 2.80897C10.1896 3.33022 13.2342 4.4496 13.3749 4.5081C13.5155 4.56697 13.574 4.66672 13.6269 4.73685L8.49986 6.55297L3.34961 4.7016C3.45123 4.5801 3.62186 4.50097 3.73023 4.4556C3.91211 4.37947 8.10498 2.85585 8.23623 2.80935C8.36748 2.7621 8.63073 2.78947 8.74623 2.80935L8.74586 2.80897Z" fill="url(#paint2_linear_3456_1071)"/>
<path d="M8.74586 2.80897C10.1896 3.33022 13.2342 4.4496 13.3749 4.5081C13.5155 4.56697 13.574 4.66672 13.6269 4.73685L8.49986 6.55297L3.34961 4.7016C3.45123 4.5801 3.62186 4.50097 3.73023 4.4556C3.91211 4.37947 8.10498 2.85585 8.23623 2.80935C8.36748 2.7621 8.63073 2.78947 8.74623 2.80935L8.74586 2.80897Z" fill="url(#paint3_radial_3456_1071)"/>
<path d="M8.74586 2.80897C10.1896 3.33022 13.2342 4.4496 13.3749 4.5081C13.5155 4.56697 13.574 4.66672 13.6269 4.73685L8.49986 6.55297L3.34961 4.7016C3.45123 4.5801 3.62186 4.50097 3.73023 4.4556C3.91211 4.37947 8.10498 2.85585 8.23623 2.80935C8.36748 2.7621 8.63073 2.78947 8.74623 2.80935L8.74586 2.80897Z" fill="url(#paint4_linear_3456_1071)"/>
<path d="M8.74586 2.80897C10.1896 3.33022 13.2342 4.4496 13.3749 4.5081C13.5155 4.56697 13.574 4.66672 13.6269 4.73685L8.49986 6.55297L3.34961 4.7016C3.45123 4.5801 3.62186 4.50097 3.73023 4.4556C3.91211 4.37947 8.10498 2.85585 8.23623 2.80935C8.36748 2.7621 8.63073 2.78947 8.74623 2.80935L8.74586 2.80897Z" fill="url(#paint5_linear_3456_1071)"/>
<path d="M13.4167 11.4925L8.69397 13.2325C8.64672 13.2482 8.58034 13.2587 8.51172 13.2602L8.51209 6.5027L13.6121 4.7207C13.6852 4.8332 13.7328 4.9472 13.7328 5.02933V10.9416C13.7328 11.2135 13.5277 11.4516 13.4163 11.4921L13.4167 11.4925Z" fill="url(#paint6_linear_3456_1071)"/>
<path d="M13.4167 11.4925L8.69397 13.2325C8.64672 13.2482 8.58034 13.2587 8.51172 13.2602L8.51209 6.5027L13.6121 4.7207C13.6852 4.8332 13.7328 4.9472 13.7328 5.02933V10.9416C13.7328 11.2135 13.5277 11.4516 13.4163 11.4921L13.4167 11.4925Z" fill="url(#paint7_linear_3456_1071)"/>
<path d="M13.4167 11.4925L8.69397 13.2325C8.64672 13.2482 8.58034 13.2587 8.51172 13.2602L8.51209 6.5027L13.6121 4.7207C13.6852 4.8332 13.7328 4.9472 13.7328 5.02933V10.9416C13.7328 11.2135 13.5277 11.4516 13.4163 11.4921L13.4167 11.4925Z" fill="url(#paint8_linear_3456_1071)"/>
<path d="M3.25617 10.9891V5.03039C3.25617 4.87477 3.30304 4.76414 3.37129 4.68164C3.37129 4.68164 7.28104 6.15989 8.51142 6.49777V13.2609C8.4402 13.2642 8.36896 13.2548 8.30104 13.2331C6.78185 12.6777 5.26235 12.123 3.74254 11.5693C3.36754 11.4343 3.24042 11.1181 3.25617 10.9891Z" fill="url(#paint9_linear_3456_1071)"/>
<path d="M3.25617 10.9891V5.03039C3.25617 4.87477 3.30304 4.76414 3.37129 4.68164C3.37129 4.68164 7.28104 6.15989 8.51142 6.49777V13.2609C8.4402 13.2642 8.36896 13.2548 8.30104 13.2331C6.78185 12.6777 5.26235 12.123 3.74254 11.5693C3.36754 11.4343 3.24042 11.1181 3.25617 10.9891Z" fill="url(#paint10_linear_3456_1071)"/>
<path d="M3.25617 10.9891V5.03039C3.25617 4.87477 3.30304 4.76414 3.37129 4.68164C3.37129 4.68164 7.28104 6.15989 8.51142 6.49777V13.2609C8.4402 13.2642 8.36896 13.2548 8.30104 13.2331C6.78185 12.6777 5.26235 12.123 3.74254 11.5693C3.36754 11.4343 3.24042 11.1181 3.25617 10.9891Z" fill="url(#paint11_linear_3456_1071)"/>
<path d="M3.25617 10.9891V5.03039C3.25617 4.87477 3.30304 4.76414 3.37129 4.68164C3.37129 4.68164 7.28104 6.15989 8.51142 6.49777V13.2609C8.4402 13.2642 8.36896 13.2548 8.30104 13.2331C6.78185 12.6777 5.26235 12.123 3.74254 11.5693C3.36754 11.4343 3.24042 11.1181 3.25617 10.9891Z" fill="url(#paint12_radial_3456_1071)"/>
<g filter="url(#filter0_f_3456_1071)">
<path d="M10.0569 7.3934C10.3326 7.69715 10.6044 8.2079 10.6693 8.59865C10.8006 9.38165 9.67257 9.75252 9.53719 9.10265C9.43107 8.59265 9.70557 7.84377 9.93094 7.41215C9.96394 7.34952 10.0262 7.3514 10.0569 7.3934Z" fill="#2790F9"/>
<path d="M10.0569 7.3934C10.3326 7.69715 10.6044 8.2079 10.6693 8.59865C10.8006 9.38165 9.67257 9.75252 9.53719 9.10265C9.43107 8.59265 9.70557 7.84377 9.93094 7.41215C9.96394 7.34952 10.0262 7.3514 10.0569 7.3934Z" fill="#2790F9"/>
</g>
<path d="M10.2451 7.05633C10.5567 7.36008 10.8638 7.87121 10.9377 8.26158C11.0858 9.04458 9.81047 9.41546 9.65747 8.76558C9.53747 8.25558 9.8476 7.50671 10.1026 7.07508C10.1401 7.01246 10.2102 7.01471 10.2451 7.05633Z" fill="#2790F9"/>
<path d="M10.2451 7.05633C10.5567 7.36008 10.8638 7.87121 10.9377 8.26158C11.0858 9.04458 9.81047 9.41546 9.65747 8.76558C9.53747 8.25558 9.8476 7.50671 10.1026 7.07508C10.1401 7.01246 10.2102 7.01471 10.2451 7.05633Z" fill="url(#paint13_radial_3456_1071)"/>
<path d="M10.2451 7.05633C10.5567 7.36008 10.8638 7.87121 10.9377 8.26158C11.0858 9.04458 9.81047 9.41546 9.65747 8.76558C9.53747 8.25558 9.8476 7.50671 10.1026 7.07508C10.1401 7.01246 10.2102 7.01471 10.2451 7.05633Z" fill="url(#paint14_radial_3456_1071)"/>
<g filter="url(#filter1_f_3456_1071)">
<path d="M12.3461 9.65821C12.8441 9.61396 12.9574 10.3317 12.516 10.4521C12.3112 10.508 12.0566 10.406 12.0322 10.2121C12.0045 9.98859 12.1781 9.67284 12.3461 9.65821Z" fill="#2790F9"/>
</g>
<path d="M12.4463 9.42188C12.9447 9.37763 13.058 10.095 12.6166 10.2154C12.4118 10.2716 12.1572 10.1693 12.1328 9.97538C12.1051 9.75188 12.2783 9.43651 12.4463 9.42151V9.42188Z" fill="url(#paint15_radial_3456_1071)"/>
<path d="M12.4463 9.42188C12.9447 9.37763 13.058 10.095 12.6166 10.2154C12.4118 10.2716 12.1572 10.1693 12.1328 9.97538C12.1051 9.75188 12.2783 9.43651 12.4463 9.42151V9.42188Z" fill="url(#paint16_radial_3456_1071)"/>
<g filter="url(#filter2_f_3456_1071)">
<path d="M7.06466 9.03204C7.07404 8.75566 7.29341 8.58691 7.41041 8.58691C7.92041 8.64541 7.82254 9.31516 7.66241 9.37816C7.52741 9.43066 7.05304 9.37816 7.06466 9.03204Z" fill="#268BE7"/>
</g>
<path d="M6.92404 9.07343C6.93341 8.79668 7.15279 8.62793 7.26979 8.62793C7.77979 8.68643 7.68191 9.35618 7.52179 9.41918C7.38679 9.47168 6.91241 9.41918 6.92404 9.07305V9.07343Z" fill="url(#paint17_radial_3456_1071)"/>
<path d="M6.92404 9.07343C6.93341 8.79668 7.15279 8.62793 7.26979 8.62793C7.77979 8.68643 7.68191 9.35618 7.52179 9.41918C7.38679 9.47168 6.91241 9.41918 6.92404 9.07305V9.07343Z" fill="url(#paint18_radial_3456_1071)"/>
<g filter="url(#filter3_f_3456_1071)">
<path d="M5.43162 10.752C5.35175 10.3721 5.64237 10.1426 5.783 10.1426C6.3395 10.1426 6.33125 10.9586 6.158 11.0565C5.98475 11.1547 5.51112 11.1315 5.43162 10.752Z" fill="#1D89E4"/>
</g>
<path d="M5.26559 10.8311C5.18572 10.4512 5.47672 10.2217 5.61734 10.2217C6.17384 10.2217 6.16559 11.0377 5.99234 11.1356C5.81872 11.2338 5.34509 11.2106 5.26559 10.8311Z" fill="url(#paint19_radial_3456_1071)"/>
<path d="M5.26559 10.8311C5.18572 10.4512 5.47672 10.2217 5.61734 10.2217C6.17384 10.2217 6.16559 11.0377 5.99234 11.1356C5.81872 11.2338 5.34509 11.2106 5.26559 10.8311Z" fill="url(#paint20_radial_3456_1071)"/>
<g filter="url(#filter4_f_3456_1071)">
<path d="M4.20391 8.00094C4.16153 7.50856 4.49041 6.78819 4.75628 6.48931C4.83241 6.42781 4.88303 6.42819 4.95503 6.50694C5.14853 6.71769 5.67466 7.66681 5.67466 8.25294C5.67466 8.69844 5.29366 8.76294 5.10053 8.76294C4.77803 8.76294 4.24591 8.49294 4.20391 8.00094Z" fill="#3399EE"/>
</g>
<path d="M3.94775 8.00094C3.90538 7.50856 4.42588 6.78819 4.69175 6.48931C4.76788 6.42781 4.81888 6.42819 4.89088 6.50694C5.08438 6.71769 5.41813 7.66681 5.41813 8.25294C5.41813 8.69844 5.0375 8.76294 4.844 8.76294C4.5215 8.76294 3.98975 8.49294 3.94775 8.00094Z" fill="#63A9ED"/>
<path d="M3.94775 8.00094C3.90538 7.50856 4.42588 6.78819 4.69175 6.48931C4.76788 6.42781 4.81888 6.42819 4.89088 6.50694C5.08438 6.71769 5.41813 7.66681 5.41813 8.25294C5.41813 8.69844 5.0375 8.76294 4.844 8.76294C4.5215 8.76294 3.98975 8.49294 3.94775 8.00094Z" fill="url(#paint21_radial_3456_1071)"/>
<path d="M3.94775 8.00094C3.90538 7.50856 4.42588 6.78819 4.69175 6.48931C4.76788 6.42781 4.81888 6.42819 4.89088 6.50694C5.08438 6.71769 5.41813 7.66681 5.41813 8.25294C5.41813 8.69844 5.0375 8.76294 4.844 8.76294C4.5215 8.76294 3.98975 8.49294 3.94775 8.00094Z" fill="url(#paint22_radial_3456_1071)"/>
<g filter="url(#filter5_f_3456_1071)">
<path d="M13.1523 4.53125L8.3125 6.17188" stroke="#73E7FF" stroke-width="0.25" stroke-linecap="round"/>
</g>
<path d="M17.2562 13.9888V8.0301C17.2562 7.6431 17.5487 7.53172 17.7305 7.4556C17.9124 7.37947 22.1053 5.85585 22.2365 5.80935C22.3678 5.7621 22.631 5.78947 22.7465 5.80935C24.1892 6.33022 27.1359 7.40047 27.3752 7.50772C27.614 7.61572 27.713 7.90035 27.7325 8.02935V13.9416C27.7325 14.2135 27.5274 14.4516 27.416 14.4921L22.6937 16.2325C22.595 16.2655 22.4143 16.2737 22.301 16.2325C20.7819 15.677 19.2624 15.1224 17.7425 14.5686C17.3675 14.4336 17.2404 14.1178 17.2562 13.9888Z" fill="#52C3E4"/>
<path d="M22.7459 5.80897C24.1896 6.33022 27.2342 7.4496 27.3749 7.5081C27.5155 7.56697 27.574 7.66672 27.6269 7.73685L22.4999 9.55297L17.3496 7.7016C17.4512 7.5801 17.6219 7.50097 17.7302 7.4556C17.9121 7.37947 22.105 5.85585 22.2362 5.80935C22.3675 5.7621 22.6307 5.78947 22.7462 5.80935L22.7459 5.80897Z" fill="url(#paint23_linear_3456_1071)"/>
<path d="M22.7459 5.80897C24.1896 6.33022 27.2342 7.4496 27.3749 7.5081C27.5155 7.56697 27.574 7.66672 27.6269 7.73685L22.4999 9.55297L17.3496 7.7016C17.4512 7.5801 17.6219 7.50097 17.7302 7.4556C17.9121 7.37947 22.105 5.85585 22.2362 5.80935C22.3675 5.7621 22.6307 5.78947 22.7462 5.80935L22.7459 5.80897Z" fill="url(#paint24_linear_3456_1071)"/>
<path d="M22.7459 5.80897C24.1896 6.33022 27.2342 7.4496 27.3749 7.5081C27.5155 7.56697 27.574 7.66672 27.6269 7.73685L22.4999 9.55297L17.3496 7.7016C17.4512 7.5801 17.6219 7.50097 17.7302 7.4556C17.9121 7.37947 22.105 5.85585 22.2362 5.80935C22.3675 5.7621 22.6307 5.78947 22.7462 5.80935L22.7459 5.80897Z" fill="url(#paint25_linear_3456_1071)"/>
<path d="M22.7459 5.80897C24.1896 6.33022 27.2342 7.4496 27.3749 7.5081C27.5155 7.56697 27.574 7.66672 27.6269 7.73685L22.4999 9.55297L17.3496 7.7016C17.4512 7.5801 17.6219 7.50097 17.7302 7.4556C17.9121 7.37947 22.105 5.85585 22.2362 5.80935C22.3675 5.7621 22.6307 5.78947 22.7462 5.80935L22.7459 5.80897Z" fill="url(#paint26_radial_3456_1071)"/>
<path d="M22.7459 5.80897C24.1896 6.33022 27.2342 7.4496 27.3749 7.5081C27.5155 7.56697 27.574 7.66672 27.6269 7.73685L22.4999 9.55297L17.3496 7.7016C17.4512 7.5801 17.6219 7.50097 17.7302 7.4556C17.9121 7.37947 22.105 5.85585 22.2362 5.80935C22.3675 5.7621 22.6307 5.78947 22.7462 5.80935L22.7459 5.80897Z" fill="url(#paint27_linear_3456_1071)"/>
<path d="M22.7459 5.80897C24.1896 6.33022 27.2342 7.4496 27.3749 7.5081C27.5155 7.56697 27.574 7.66672 27.6269 7.73685L22.4999 9.55297L17.3496 7.7016C17.4512 7.5801 17.6219 7.50097 17.7302 7.4556C17.9121 7.37947 22.105 5.85585 22.2362 5.80935C22.3675 5.7621 22.6307 5.78947 22.7462 5.80935L22.7459 5.80897Z" fill="url(#paint28_linear_3456_1071)"/>
<path d="M27.4167 14.4925L22.694 16.2325C22.6467 16.2482 22.5803 16.2587 22.5117 16.2602L22.5121 9.5027L27.6121 7.7207C27.6852 7.8332 27.7328 7.9472 27.7328 8.02933V13.9416C27.7328 14.2135 27.5277 14.4516 27.4163 14.4921L27.4167 14.4925Z" fill="url(#paint29_linear_3456_1071)"/>
<path d="M27.4167 14.4925L22.694 16.2325C22.6467 16.2482 22.5803 16.2587 22.5117 16.2602L22.5121 9.5027L27.6121 7.7207C27.6852 7.8332 27.7328 7.9472 27.7328 8.02933V13.9416C27.7328 14.2135 27.5277 14.4516 27.4163 14.4921L27.4167 14.4925Z" fill="url(#paint30_linear_3456_1071)"/>
<path d="M27.4167 14.4925L22.694 16.2325C22.6467 16.2482 22.5803 16.2587 22.5117 16.2602L22.5121 9.5027L27.6121 7.7207C27.6852 7.8332 27.7328 7.9472 27.7328 8.02933V13.9416C27.7328 14.2135 27.5277 14.4516 27.4163 14.4921L27.4167 14.4925Z" fill="url(#paint31_linear_3456_1071)"/>
<path d="M17.2562 13.9891V8.03039C17.2562 7.87477 17.303 7.76414 17.3713 7.68164C17.3713 7.68164 21.281 9.15989 22.5114 9.49777V16.2609C22.4402 16.2642 22.369 16.2548 22.301 16.2331C20.7819 15.6777 19.2624 15.123 17.7425 14.5693C17.3675 14.4343 17.2404 14.1181 17.2562 13.9891Z" fill="url(#paint32_linear_3456_1071)"/>
<path d="M17.2562 13.9891V8.03039C17.2562 7.87477 17.303 7.76414 17.3713 7.68164C17.3713 7.68164 21.281 9.15989 22.5114 9.49777V16.2609C22.4402 16.2642 22.369 16.2548 22.301 16.2331C20.7819 15.6777 19.2624 15.123 17.7425 14.5693C17.3675 14.4343 17.2404 14.1181 17.2562 13.9891Z" fill="url(#paint33_linear_3456_1071)"/>
<path d="M17.2562 13.9891V8.03039C17.2562 7.87477 17.303 7.76414 17.3713 7.68164C17.3713 7.68164 21.281 9.15989 22.5114 9.49777V16.2609C22.4402 16.2642 22.369 16.2548 22.301 16.2331C20.7819 15.6777 19.2624 15.123 17.7425 14.5693C17.3675 14.4343 17.2404 14.1181 17.2562 13.9891Z" fill="url(#paint34_radial_3456_1071)"/>
<g filter="url(#filter6_f_3456_1071)">
<path d="M24.0569 10.3934C24.3326 10.6971 24.6044 11.2079 24.6693 11.5986C24.8006 12.3816 23.6726 12.7525 23.5372 12.1026C23.4311 11.5926 23.7056 10.8438 23.9309 10.4121C23.9639 10.3495 24.0262 10.3514 24.0569 10.3934Z" fill="#39B3FF"/>
</g>
<path d="M24.2451 10.0563C24.5567 10.3601 24.8638 10.8712 24.9377 11.2616C25.0858 12.0446 23.8105 12.4155 23.6575 11.7656C23.5375 11.2556 23.8476 10.5067 24.1026 10.0751C24.1401 10.0125 24.2102 10.0147 24.2451 10.0563Z" fill="url(#paint35_radial_3456_1071)"/>
<path d="M24.2451 10.0563C24.5567 10.3601 24.8638 10.8712 24.9377 11.2616C25.0858 12.0446 23.8105 12.4155 23.6575 11.7656C23.5375 11.2556 23.8476 10.5067 24.1026 10.0751C24.1401 10.0125 24.2102 10.0147 24.2451 10.0563Z" fill="url(#paint36_radial_3456_1071)"/>
<g filter="url(#filter7_f_3456_1071)">
<path d="M26.3461 12.6582C26.8441 12.614 26.9574 13.3317 26.516 13.4521C26.3112 13.508 26.0566 13.406 26.0322 13.2121C26.0045 12.9886 26.1781 12.6728 26.3461 12.6582Z" fill="#33B4FF"/>
</g>
<path d="M26.4463 12.4219C26.9447 12.3776 27.058 13.095 26.6166 13.2154C26.4118 13.2716 26.1572 13.1693 26.1328 12.9754C26.1051 12.7519 26.2783 12.4365 26.4463 12.4215V12.4219Z" fill="url(#paint37_radial_3456_1071)"/>
<path d="M26.4463 12.4219C26.9447 12.3776 27.058 13.095 26.6166 13.2154C26.4118 13.2716 26.1572 13.1693 26.1328 12.9754C26.1051 12.7519 26.2783 12.4365 26.4463 12.4215V12.4219Z" fill="url(#paint38_radial_3456_1071)"/>
<g filter="url(#filter8_f_3456_1071)">
<path d="M21.0647 12.032C21.074 11.7557 21.2934 11.5869 21.4104 11.5869C21.9204 11.6454 21.8225 12.3152 21.6624 12.3782C21.5274 12.4307 21.053 12.3782 21.0647 12.032Z" fill="#268BE7"/>
</g>
<path d="M20.924 12.0734C20.9334 11.7967 21.1528 11.6279 21.2698 11.6279C21.7798 11.6864 21.6819 12.3562 21.5218 12.4192C21.3868 12.4717 20.9124 12.4192 20.924 12.0731V12.0734Z" fill="url(#paint39_radial_3456_1071)"/>
<path d="M20.924 12.0734C20.9334 11.7967 21.1528 11.6279 21.2698 11.6279C21.7798 11.6864 21.6819 12.3562 21.5218 12.4192C21.3868 12.4717 20.9124 12.4192 20.924 12.0731V12.0734Z" fill="url(#paint40_radial_3456_1071)"/>
<g filter="url(#filter9_f_3456_1071)">
<path d="M19.4316 13.752C19.3517 13.3721 19.6424 13.1426 19.783 13.1426C20.3395 13.1426 20.3312 13.9586 20.158 14.0565C19.9847 14.1547 19.5111 14.1315 19.4316 13.752Z" fill="#1D89E4"/>
</g>
<path d="M19.2656 13.8311C19.1857 13.4512 19.4767 13.2217 19.6173 13.2217C20.1738 13.2217 20.1656 14.0377 19.9923 14.1356C19.8187 14.2338 19.3451 14.2106 19.2656 13.8311Z" fill="url(#paint41_radial_3456_1071)"/>
<path d="M19.2656 13.8311C19.1857 13.4512 19.4767 13.2217 19.6173 13.2217C20.1738 13.2217 20.1656 14.0377 19.9923 14.1356C19.8187 14.2338 19.3451 14.2106 19.2656 13.8311Z" fill="url(#paint42_radial_3456_1071)"/>
<g filter="url(#filter10_f_3456_1071)">
<path d="M18.2039 11.0009C18.1615 10.5086 18.4904 9.78819 18.7563 9.48931C18.8324 9.42781 18.883 9.42819 18.955 9.50694C19.1485 9.71769 19.6747 10.6668 19.6747 11.2529C19.6747 11.6984 19.2937 11.7629 19.1005 11.7629C18.778 11.7629 18.2459 11.4929 18.2039 11.0009Z" fill="#3399EE"/>
</g>
<path d="M17.9478 11.0009C17.9054 10.5086 18.4259 9.78819 18.6918 9.48931C18.7679 9.42781 18.8189 9.42819 18.8909 9.50694C19.0844 9.71769 19.4181 10.6668 19.4181 11.2529C19.4181 11.6984 19.0375 11.7629 18.844 11.7629C18.5215 11.7629 17.9898 11.4929 17.9478 11.0009Z" fill="#63A9ED"/>
<path d="M17.9478 11.0009C17.9054 10.5086 18.4259 9.78819 18.6918 9.48931C18.7679 9.42781 18.8189 9.42819 18.8909 9.50694C19.0844 9.71769 19.4181 10.6668 19.4181 11.2529C19.4181 11.6984 19.0375 11.7629 18.844 11.7629C18.5215 11.7629 17.9898 11.4929 17.9478 11.0009Z" fill="url(#paint43_radial_3456_1071)"/>
<path d="M17.9478 11.0009C17.9054 10.5086 18.4259 9.78819 18.6918 9.48931C18.7679 9.42781 18.8189 9.42819 18.8909 9.50694C19.0844 9.71769 19.4181 10.6668 19.4181 11.2529C19.4181 11.6984 19.0375 11.7629 18.844 11.7629C18.5215 11.7629 17.9898 11.4929 17.9478 11.0009Z" fill="url(#paint44_radial_3456_1071)"/>
<g filter="url(#filter11_f_3456_1071)">
<path d="M27.1523 7.53125L22.3125 9.17188" stroke="#73E7FF" stroke-width="0.25" stroke-linecap="round"/>
</g>
<path d="M7.25617 23.9888V18.0301C7.25617 17.6431 7.54867 17.5317 7.73054 17.4556C7.91242 17.3795 12.1053 15.8558 12.2365 15.8093C12.3678 15.7621 12.631 15.7895 12.7465 15.8093C14.1892 16.3302 17.1359 17.4005 17.3752 17.5077C17.614 17.6157 17.713 17.9003 17.7325 18.0293V23.9416C17.7325 24.2135 17.5274 24.4516 17.416 24.4921L12.6937 26.2325C12.595 26.2655 12.4143 26.2737 12.301 26.2325C10.7819 25.677 9.26235 25.1224 7.74254 24.5686C7.36754 24.4336 7.24042 24.1178 7.25617 23.9888Z" fill="#52C3E4"/>
<path d="M12.7459 15.809C14.1896 16.3302 17.2342 17.4496 17.3749 17.5081C17.5155 17.567 17.574 17.6667 17.6269 17.7368L12.4999 19.553L7.34961 17.7016C7.45123 17.5801 7.62186 17.501 7.73023 17.4556C7.91211 17.3795 12.105 15.8558 12.2362 15.8093C12.3675 15.7621 12.6307 15.7895 12.7462 15.8093L12.7459 15.809Z" fill="url(#paint45_linear_3456_1071)"/>
<path d="M12.7459 15.809C14.1896 16.3302 17.2342 17.4496 17.3749 17.5081C17.5155 17.567 17.574 17.6667 17.6269 17.7368L12.4999 19.553L7.34961 17.7016C7.45123 17.5801 7.62186 17.501 7.73023 17.4556C7.91211 17.3795 12.105 15.8558 12.2362 15.8093C12.3675 15.7621 12.6307 15.7895 12.7462 15.8093L12.7459 15.809Z" fill="url(#paint46_linear_3456_1071)"/>
<path d="M12.7459 15.809C14.1896 16.3302 17.2342 17.4496 17.3749 17.5081C17.5155 17.567 17.574 17.6667 17.6269 17.7368L12.4999 19.553L7.34961 17.7016C7.45123 17.5801 7.62186 17.501 7.73023 17.4556C7.91211 17.3795 12.105 15.8558 12.2362 15.8093C12.3675 15.7621 12.6307 15.7895 12.7462 15.8093L12.7459 15.809Z" fill="url(#paint47_linear_3456_1071)"/>
<path d="M12.7459 15.809C14.1896 16.3302 17.2342 17.4496 17.3749 17.5081C17.5155 17.567 17.574 17.6667 17.6269 17.7368L12.4999 19.553L7.34961 17.7016C7.45123 17.5801 7.62186 17.501 7.73023 17.4556C7.91211 17.3795 12.105 15.8558 12.2362 15.8093C12.3675 15.7621 12.6307 15.7895 12.7462 15.8093L12.7459 15.809Z" fill="url(#paint48_radial_3456_1071)"/>
<path d="M12.7459 15.809C14.1896 16.3302 17.2342 17.4496 17.3749 17.5081C17.5155 17.567 17.574 17.6667 17.6269 17.7368L12.4999 19.553L7.34961 17.7016C7.45123 17.5801 7.62186 17.501 7.73023 17.4556C7.91211 17.3795 12.105 15.8558 12.2362 15.8093C12.3675 15.7621 12.6307 15.7895 12.7462 15.8093L12.7459 15.809Z" fill="url(#paint49_linear_3456_1071)"/>
<path d="M12.7459 15.809C14.1896 16.3302 17.2342 17.4496 17.3749 17.5081C17.5155 17.567 17.574 17.6667 17.6269 17.7368L12.4999 19.553L7.34961 17.7016C7.45123 17.5801 7.62186 17.501 7.73023 17.4556C7.91211 17.3795 12.105 15.8558 12.2362 15.8093C12.3675 15.7621 12.6307 15.7895 12.7462 15.8093L12.7459 15.809Z" fill="url(#paint50_linear_3456_1071)"/>
<path d="M17.4167 24.4925L12.694 26.2325C12.6467 26.2482 12.5803 26.2587 12.5117 26.2602L12.5121 19.5027L17.6121 17.7207C17.6852 17.8332 17.7328 17.9472 17.7328 18.0293V23.9416C17.7328 24.2135 17.5277 24.4516 17.4163 24.4921L17.4167 24.4925Z" fill="url(#paint51_linear_3456_1071)"/>
<path d="M17.4167 24.4925L12.694 26.2325C12.6467 26.2482 12.5803 26.2587 12.5117 26.2602L12.5121 19.5027L17.6121 17.7207C17.6852 17.8332 17.7328 17.9472 17.7328 18.0293V23.9416C17.7328 24.2135 17.5277 24.4516 17.4163 24.4921L17.4167 24.4925Z" fill="url(#paint52_linear_3456_1071)"/>
<path d="M17.4167 24.4925L12.694 26.2325C12.6467 26.2482 12.5803 26.2587 12.5117 26.2602L12.5121 19.5027L17.6121 17.7207C17.6852 17.8332 17.7328 17.9472 17.7328 18.0293V23.9416C17.7328 24.2135 17.5277 24.4516 17.4163 24.4921L17.4167 24.4925Z" fill="url(#paint53_linear_3456_1071)"/>
<path d="M7.25617 23.9891V18.0304C7.25617 17.8748 7.30304 17.7641 7.37129 17.6816C7.37129 17.6816 11.281 19.1599 12.5114 19.4978V26.2609C12.4402 26.2642 12.369 26.2548 12.301 26.2331C10.7819 25.6777 9.26235 25.123 7.74254 24.5693C7.36754 24.4343 7.24042 24.1181 7.25617 23.9891Z" fill="url(#paint54_linear_3456_1071)"/>
<path d="M7.25617 23.9891V18.0304C7.25617 17.8748 7.30304 17.7641 7.37129 17.6816C7.37129 17.6816 11.281 19.1599 12.5114 19.4978V26.2609C12.4402 26.2642 12.369 26.2548 12.301 26.2331C10.7819 25.6777 9.26235 25.123 7.74254 24.5693C7.36754 24.4343 7.24042 24.1181 7.25617 23.9891Z" fill="url(#paint55_linear_3456_1071)"/>
<path d="M7.25617 23.9891V18.0304C7.25617 17.8748 7.30304 17.7641 7.37129 17.6816C7.37129 17.6816 11.281 19.1599 12.5114 19.4978V26.2609C12.4402 26.2642 12.369 26.2548 12.301 26.2331C10.7819 25.6777 9.26235 25.123 7.74254 24.5693C7.36754 24.4343 7.24042 24.1181 7.25617 23.9891Z" fill="url(#paint56_radial_3456_1071)"/>
<g filter="url(#filter12_f_3456_1071)">
<path d="M14.0569 20.3934C14.3326 20.6971 14.6044 21.2079 14.6693 21.5986C14.8006 22.3816 13.6726 22.7525 13.5372 22.1026C13.4311 21.5926 13.7056 20.8438 13.9309 20.4121C13.9639 20.3495 14.0262 20.3514 14.0569 20.3934Z" fill="#39B3FF"/>
</g>
<path d="M14.2451 20.0563C14.5567 20.3601 14.8638 20.8712 14.9377 21.2616C15.0858 22.0446 13.8105 22.4155 13.6575 21.7656C13.5375 21.2556 13.8476 20.5067 14.1026 20.0751C14.1401 20.0125 14.2102 20.0147 14.2451 20.0563Z" fill="url(#paint57_radial_3456_1071)"/>
<path d="M14.2451 20.0563C14.5567 20.3601 14.8638 20.8712 14.9377 21.2616C15.0858 22.0446 13.8105 22.4155 13.6575 21.7656C13.5375 21.2556 13.8476 20.5067 14.1026 20.0751C14.1401 20.0125 14.2102 20.0147 14.2451 20.0563Z" fill="url(#paint58_radial_3456_1071)"/>
<g filter="url(#filter13_f_3456_1071)">
<path d="M16.3461 22.6582C16.8441 22.614 16.9574 23.3317 16.516 23.4521C16.3112 23.508 16.0566 23.406 16.0322 23.2121C16.0045 22.9886 16.1781 22.6728 16.3461 22.6582Z" fill="#33B4FF"/>
</g>
<path d="M16.4463 22.4219C16.9447 22.3776 17.058 23.095 16.6166 23.2154C16.4118 23.2716 16.1572 23.1693 16.1328 22.9754C16.1051 22.7519 16.2783 22.4365 16.4463 22.4215V22.4219Z" fill="url(#paint59_radial_3456_1071)"/>
<path d="M16.4463 22.4219C16.9447 22.3776 17.058 23.095 16.6166 23.2154C16.4118 23.2716 16.1572 23.1693 16.1328 22.9754C16.1051 22.7519 16.2783 22.4365 16.4463 22.4215V22.4219Z" fill="url(#paint60_radial_3456_1071)"/>
<g filter="url(#filter14_f_3456_1071)">
<path d="M11.0647 22.032C11.074 21.7557 11.2934 21.5869 11.4104 21.5869C11.9204 21.6454 11.8225 22.3152 11.6624 22.3782C11.5274 22.4307 11.053 22.3782 11.0647 22.032Z" fill="#268BE7"/>
</g>
<path d="M10.924 22.0734C10.9334 21.7967 11.1528 21.6279 11.2698 21.6279C11.7798 21.6864 11.6819 22.3562 11.5218 22.4192C11.3868 22.4717 10.9124 22.4192 10.924 22.0731V22.0734Z" fill="url(#paint61_radial_3456_1071)"/>
<path d="M10.924 22.0734C10.9334 21.7967 11.1528 21.6279 11.2698 21.6279C11.7798 21.6864 11.6819 22.3562 11.5218 22.4192C11.3868 22.4717 10.9124 22.4192 10.924 22.0731V22.0734Z" fill="url(#paint62_radial_3456_1071)"/>
<g filter="url(#filter15_f_3456_1071)">
<path d="M9.43162 23.752C9.35175 23.3721 9.64237 23.1426 9.783 23.1426C10.3395 23.1426 10.3312 23.9586 10.158 24.0565C9.98475 24.1547 9.51112 24.1315 9.43162 23.752Z" fill="#1D89E4"/>
</g>
<path d="M9.26559 23.8311C9.18572 23.4512 9.47672 23.2217 9.61734 23.2217C10.1738 23.2217 10.1656 24.0377 9.99234 24.1356C9.81872 24.2338 9.34509 24.2106 9.26559 23.8311Z" fill="url(#paint63_radial_3456_1071)"/>
<path d="M9.26559 23.8311C9.18572 23.4512 9.47672 23.2217 9.61734 23.2217C10.1738 23.2217 10.1656 24.0377 9.99234 24.1356C9.81872 24.2338 9.34509 24.2106 9.26559 23.8311Z" fill="url(#paint64_radial_3456_1071)"/>
<g filter="url(#filter16_f_3456_1071)">
<path d="M8.20391 21.0009C8.16153 20.5086 8.49041 19.7882 8.75628 19.4893C8.83241 19.4278 8.88303 19.4282 8.95503 19.5069C9.14853 19.7177 9.67466 20.6668 9.67466 21.2529C9.67466 21.6984 9.29366 21.7629 9.10053 21.7629C8.77803 21.7629 8.24591 21.4929 8.20391 21.0009Z" fill="#3399EE"/>
</g>
<path d="M7.94775 21.0009C7.90538 20.5086 8.42588 19.7882 8.69175 19.4893C8.76788 19.4278 8.81888 19.4282 8.89088 19.5069C9.08438 19.7177 9.41813 20.6668 9.41813 21.2529C9.41813 21.6984 9.0375 21.7629 8.844 21.7629C8.5215 21.7629 7.98975 21.4929 7.94775 21.0009Z" fill="#63A9ED"/>
<path d="M7.94775 21.0009C7.90538 20.5086 8.42588 19.7882 8.69175 19.4893C8.76788 19.4278 8.81888 19.4282 8.89088 19.5069C9.08438 19.7177 9.41813 20.6668 9.41813 21.2529C9.41813 21.6984 9.0375 21.7629 8.844 21.7629C8.5215 21.7629 7.98975 21.4929 7.94775 21.0009Z" fill="url(#paint65_radial_3456_1071)"/>
<path d="M7.94775 21.0009C7.90538 20.5086 8.42588 19.7882 8.69175 19.4893C8.76788 19.4278 8.81888 19.4282 8.89088 19.5069C9.08438 19.7177 9.41813 20.6668 9.41813 21.2529C9.41813 21.6984 9.0375 21.7629 8.844 21.7629C8.5215 21.7629 7.98975 21.4929 7.94775 21.0009Z" fill="url(#paint66_radial_3456_1071)"/>
<g filter="url(#filter17_f_3456_1071)">
<path d="M17.1523 17.5312L12.3125 19.1719" stroke="#73E7FF" stroke-width="0.25" stroke-linecap="round"/>
</g>
<defs>
<filter id="filter0_f_3456_1071" x="8.51367" y="6.36328" width="3.16602" height="4.07324" filterUnits="userSpaceOnUse" color-interpolation-filters="sRGB">
<feFlood flood-opacity="0" result="BackgroundImageFix"/>
<feBlend mode="normal" in="SourceGraphic" in2="BackgroundImageFix" result="shape"/>
<feGaussianBlur stdDeviation="0.5" result="effect1_foregroundBlur_3456_1071"/>
</filter>
<filter id="filter1_f_3456_1071" x="11.0293" y="8.65625" width="2.76172" height="2.81152" filterUnits="userSpaceOnUse" color-interpolation-filters="sRGB">
<feFlood flood-opacity="0" result="BackgroundImageFix"/>
<feBlend mode="normal" in="SourceGraphic" in2="BackgroundImageFix" result="shape"/>
<feGaussianBlur stdDeviation="0.5" result="effect1_foregroundBlur_3456_1071"/>
</filter>
<filter id="filter2_f_3456_1071" x="6.06445" y="7.58691" width="2.72656" height="2.80859" filterUnits="userSpaceOnUse" color-interpolation-filters="sRGB">
<feFlood flood-opacity="0" result="BackgroundImageFix"/>
<feBlend mode="normal" in="SourceGraphic" in2="BackgroundImageFix" result="shape"/>
<feGaussianBlur stdDeviation="0.5" result="effect1_foregroundBlur_3456_1071"/>
</filter>
<filter id="filter3_f_3456_1071" x="4.41797" y="9.14258" width="2.84473" height="2.96289" filterUnits="userSpaceOnUse" color-interpolation-filters="sRGB">
<feFlood flood-opacity="0" result="BackgroundImageFix"/>
<feBlend mode="normal" in="SourceGraphic" in2="BackgroundImageFix" result="shape"/>
<feGaussianBlur stdDeviation="0.5" result="effect1_foregroundBlur_3456_1071"/>
</filter>
<filter id="filter4_f_3456_1071" x="3.2002" y="5.44531" width="3.47461" height="4.31738" filterUnits="userSpaceOnUse" color-interpolation-filters="sRGB">
<feFlood flood-opacity="0" result="BackgroundImageFix"/>
<feBlend mode="normal" in="SourceGraphic" in2="BackgroundImageFix" result="shape"/>
<feGaussianBlur stdDeviation="0.5" result="effect1_foregroundBlur_3456_1071"/>
</filter>
<filter id="filter5_f_3456_1071" x="7.9375" y="4.15625" width="5.58984" height="2.39062" filterUnits="userSpaceOnUse" color-interpolation-filters="sRGB">
<feFlood flood-opacity="0" result="BackgroundImageFix"/>
<feBlend mode="normal" in="SourceGraphic" in2="BackgroundImageFix" result="shape"/>
<feGaussianBlur stdDeviation="0.125" result="effect1_foregroundBlur_3456_1071"/>
</filter>
<filter id="filter6_f_3456_1071" x="22.5137" y="9.36328" width="3.16602" height="4.07324" filterUnits="userSpaceOnUse" color-interpolation-filters="sRGB">
<feFlood flood-opacity="0" result="BackgroundImageFix"/>
<feBlend mode="normal" in="SourceGraphic" in2="BackgroundImageFix" result="shape"/>
<feGaussianBlur stdDeviation="0.5" result="effect1_foregroundBlur_3456_1071"/>
</filter>
<filter id="filter7_f_3456_1071" x="25.0293" y="11.6562" width="2.76172" height="2.81152" filterUnits="userSpaceOnUse" color-interpolation-filters="sRGB">
<feFlood flood-opacity="0" result="BackgroundImageFix"/>
<feBlend mode="normal" in="SourceGraphic" in2="BackgroundImageFix" result="shape"/>
<feGaussianBlur stdDeviation="0.5" result="effect1_foregroundBlur_3456_1071"/>
</filter>
<filter id="filter8_f_3456_1071" x="20.0645" y="10.5869" width="2.72656" height="2.80859" filterUnits="userSpaceOnUse" color-interpolation-filters="sRGB">
<feFlood flood-opacity="0" result="BackgroundImageFix"/>
<feBlend mode="normal" in="SourceGraphic" in2="BackgroundImageFix" result="shape"/>
<feGaussianBlur stdDeviation="0.5" result="effect1_foregroundBlur_3456_1071"/>
</filter>
<filter id="filter9_f_3456_1071" x="18.418" y="12.1426" width="2.84473" height="2.96289" filterUnits="userSpaceOnUse" color-interpolation-filters="sRGB">
<feFlood flood-opacity="0" result="BackgroundImageFix"/>
<feBlend mode="normal" in="SourceGraphic" in2="BackgroundImageFix" result="shape"/>
<feGaussianBlur stdDeviation="0.5" result="effect1_foregroundBlur_3456_1071"/>
</filter>
<filter id="filter10_f_3456_1071" x="17.2002" y="8.44531" width="3.47461" height="4.31738" filterUnits="userSpaceOnUse" color-interpolation-filters="sRGB">
<feFlood flood-opacity="0" result="BackgroundImageFix"/>
<feBlend mode="normal" in="SourceGraphic" in2="BackgroundImageFix" result="shape"/>
<feGaussianBlur stdDeviation="0.5" result="effect1_foregroundBlur_3456_1071"/>
</filter>
<filter id="filter11_f_3456_1071" x="21.9375" y="7.15625" width="5.58984" height="2.39062" filterUnits="userSpaceOnUse" color-interpolation-filters="sRGB">
<feFlood flood-opacity="0" result="BackgroundImageFix"/>
<feBlend mode="normal" in="SourceGraphic" in2="BackgroundImageFix" result="shape"/>
<feGaussianBlur stdDeviation="0.125" result="effect1_foregroundBlur_3456_1071"/>
</filter>
<filter id="filter12_f_3456_1071" x="12.5137" y="19.3633" width="3.16602" height="4.07324" filterUnits="userSpaceOnUse" color-interpolation-filters="sRGB">
<feFlood flood-opacity="0" result="BackgroundImageFix"/>
<feBlend mode="normal" in="SourceGraphic" in2="BackgroundImageFix" result="shape"/>
<feGaussianBlur stdDeviation="0.5" result="effect1_foregroundBlur_3456_1071"/>
</filter>
<filter id="filter13_f_3456_1071" x="15.0293" y="21.6562" width="2.76172" height="2.81152" filterUnits="userSpaceOnUse" color-interpolation-filters="sRGB">
<feFlood flood-opacity="0" result="BackgroundImageFix"/>
<feBlend mode="normal" in="SourceGraphic" in2="BackgroundImageFix" result="shape"/>
<feGaussianBlur stdDeviation="0.5" result="effect1_foregroundBlur_3456_1071"/>
</filter>
<filter id="filter14_f_3456_1071" x="10.0645" y="20.5869" width="2.72656" height="2.80859" filterUnits="userSpaceOnUse" color-interpolation-filters="sRGB">
<feFlood flood-opacity="0" result="BackgroundImageFix"/>
<feBlend mode="normal" in="SourceGraphic" in2="BackgroundImageFix" result="shape"/>
<feGaussianBlur stdDeviation="0.5" result="effect1_foregroundBlur_3456_1071"/>
</filter>
<filter id="filter15_f_3456_1071" x="8.41797" y="22.1426" width="2.84473" height="2.96289" filterUnits="userSpaceOnUse" color-interpolation-filters="sRGB">
<feFlood flood-opacity="0" result="BackgroundImageFix"/>
<feBlend mode="normal" in="SourceGraphic" in2="BackgroundImageFix" result="shape"/>
<feGaussianBlur stdDeviation="0.5" result="effect1_foregroundBlur_3456_1071"/>
</filter>
<filter id="filter16_f_3456_1071" x="7.2002" y="18.4453" width="3.47461" height="4.31738" filterUnits="userSpaceOnUse" color-interpolation-filters="sRGB">
<feFlood flood-opacity="0" result="BackgroundImageFix"/>
<feBlend mode="normal" in="SourceGraphic" in2="BackgroundImageFix" result="shape"/>
<feGaussianBlur stdDeviation="0.5" result="effect1_foregroundBlur_3456_1071"/>
</filter>
<filter id="filter17_f_3456_1071" x="11.9375" y="17.1562" width="5.58984" height="2.39062" filterUnits="userSpaceOnUse" color-interpolation-filters="sRGB">
<feFlood flood-opacity="0" result="BackgroundImageFix"/>
<feBlend mode="normal" in="SourceGraphic" in2="BackgroundImageFix" result="shape"/>
<feGaussianBlur stdDeviation="0.125" result="effect1_foregroundBlur_3456_1071"/>
</filter>
<linearGradient id="paint0_linear_3456_1071" x1="6.43736" y1="3.54735" x2="8.48823" y2="5.18797" gradientUnits="userSpaceOnUse">
<stop stop-color="#70D9EA"/>
<stop offset="1" stop-color="#70DEF1"/>
</linearGradient>
<linearGradient id="paint1_linear_3456_1071" x1="10.3164" y1="5.93797" x2="10.1757" y2="5.53972" gradientUnits="userSpaceOnUse">
<stop offset="0.175" stop-color="#85F6FF"/>
<stop offset="0.73" stop-color="#85F6FF" stop-opacity="0"/>
</linearGradient>
<linearGradient id="paint2_linear_3456_1071" x1="5.82798" y1="5.63347" x2="5.99223" y2="5.16472" gradientUnits="userSpaceOnUse">
<stop offset="0.175" stop-color="#4CBFE2"/>
<stop offset="0.73" stop-color="#60CAE4" stop-opacity="0"/>
</linearGradient>
<radialGradient id="paint3_radial_3456_1071" cx="0" cy="0" r="1" gradientUnits="userSpaceOnUse" gradientTransform="translate(8.62286 6.46522) rotate(77.7994) scale(0.221805 0.412357)">
<stop offset="0.561" stop-color="#83F3FE"/>
<stop offset="1" stop-color="#82F3FE" stop-opacity="0"/>
</radialGradient>
<linearGradient id="paint4_linear_3456_1071" x1="6.03911" y1="3.66472" x2="6.14448" y2="3.94597" gradientUnits="userSpaceOnUse">
<stop stop-color="#66C5D6"/>
<stop offset="1" stop-color="#78D5E6" stop-opacity="0"/>
</linearGradient>
<linearGradient id="paint5_linear_3456_1071" x1="6.03911" y1="3.66472" x2="6.14448" y2="3.94597" gradientUnits="userSpaceOnUse">
<stop stop-color="#70C0CE"/>
<stop offset="0.317" stop-color="#6DD1E1" stop-opacity="0"/>
</linearGradient>
<linearGradient id="paint6_linear_3456_1071" x1="9.39109" y1="6.50008" x2="12.9536" y2="11.6095" gradientUnits="userSpaceOnUse">
<stop stop-color="#57E1FF"/>
<stop offset="1" stop-color="#3FC0FF"/>
</linearGradient>
<linearGradient id="paint7_linear_3456_1071" x1="11.6411" y1="12.2072" x2="11.4536" y2="11.7032" gradientUnits="userSpaceOnUse">
<stop stop-color="#4AA3FF"/>
<stop offset="1" stop-color="#3CAEFF" stop-opacity="0"/>
</linearGradient>
<linearGradient id="paint8_linear_3456_1071" x1="10.7741" y1="5.65633" x2="10.938" y2="6.12508" gradientUnits="userSpaceOnUse">
<stop offset="0.134" stop-color="#86F7FF"/>
<stop offset="0.802" stop-color="#86F7FF" stop-opacity="0"/>
</linearGradient>
<linearGradient id="paint9_linear_3456_1071" x1="3.69567" y1="5.28202" x2="7.98454" y2="12.2431" gradientUnits="userSpaceOnUse">
<stop stop-color="#51B0D9"/>
<stop offset="0.755" stop-color="#458EF3"/>
</linearGradient>
<linearGradient id="paint10_linear_3456_1071" x1="7.51579" y1="11.0476" x2="8.51142" y2="11.0476" gradientUnits="userSpaceOnUse">
<stop offset="0.659" stop-color="#41A1FF"/>
<stop offset="1" stop-color="#49ACFF"/>
</linearGradient>
<linearGradient id="paint11_linear_3456_1071" x1="5.88304" y1="5.39939" x2="5.66442" y2="6.00877" gradientUnits="userSpaceOnUse">
<stop offset="0.307" stop-color="#7B8CE1"/>
<stop offset="1" stop-color="#4ABDE1" stop-opacity="0"/>
</linearGradient>
<radialGradient id="paint12_radial_3456_1071" cx="0" cy="0" r="1" gradientUnits="userSpaceOnUse" gradientTransform="translate(8.64079 6.47752) rotate(151.928) scale(0.398438 0.412176)">
<stop offset="0.422" stop-color="#86F8FF"/>
<stop offset="1" stop-color="#85F6FF" stop-opacity="0"/>
</radialGradient>
<radialGradient id="paint13_radial_3456_1071" cx="0" cy="0" r="1" gradientUnits="userSpaceOnUse" gradientTransform="translate(9.93004 9.0989) rotate(77.773) scale(1.1067 0.704186)">
<stop stop-color="#67C9FF"/>
<stop offset="1" stop-color="#62C9FF" stop-opacity="0"/>
</radialGradient>
<radialGradient id="paint14_radial_3456_1071" cx="0" cy="0" r="1" gradientUnits="userSpaceOnUse" gradientTransform="translate(10.6565 7.46166) rotate(71.061) scale(1.26372 0.463369)">
<stop stop-color="#B0FFFF"/>
<stop offset="1" stop-color="#AFFEFF" stop-opacity="0"/>
</radialGradient>
<radialGradient id="paint15_radial_3456_1071" cx="0" cy="0" r="1" gradientUnits="userSpaceOnUse" gradientTransform="translate(12.5038 9.82435) rotate(82.878) scale(0.40659 0.386494)">
<stop stop-color="#5ADBFF"/>
<stop offset="1" stop-color="#51E5FF"/>
</radialGradient>
<radialGradient id="paint16_radial_3456_1071" cx="0" cy="0" r="1" gradientUnits="userSpaceOnUse" gradientTransform="translate(12.6721 9.67038) rotate(67.225) scale(0.1665 0.323137)">
<stop stop-color="#8CF5FF"/>
<stop offset="1" stop-color="#78EDFF" stop-opacity="0"/>
</radialGradient>
<radialGradient id="paint17_radial_3456_1071" cx="0" cy="0" r="1" gradientUnits="userSpaceOnUse" gradientTransform="translate(7.41075 8.94438) rotate(107.942) scale(0.646683 0.739327)">
<stop stop-color="#59AFF3"/>
<stop offset="0.462" stop-color="#52A7F3"/>
<stop offset="0.801" stop-color="#64AEF1"/>
</radialGradient>
<radialGradient id="paint18_radial_3456_1071" cx="0" cy="0" r="1" gradientUnits="userSpaceOnUse" gradientTransform="translate(7.45166 8.9148) rotate(145.619) scale(0.134896 0.121215)">
<stop offset="0.227" stop-color="#82C6FF"/>
<stop offset="1" stop-color="#83C6FF" stop-opacity="0"/>
</radialGradient>
<radialGradient id="paint19_radial_3456_1071" cx="0" cy="0" r="1" gradientUnits="userSpaceOnUse" gradientTransform="translate(5.81751 10.5986) rotate(107.533) scale(0.768697 0.861375)">
<stop stop-color="#59AFF3"/>
<stop offset="0.462" stop-color="#52A7F3"/>
<stop offset="0.801" stop-color="#64AEF1"/>
</radialGradient>
<radialGradient id="paint20_radial_3456_1071" cx="0" cy="0" r="1" gradientUnits="userSpaceOnUse" gradientTransform="translate(5.86522 10.5633) rotate(144.96) scale(0.158059 0.143269)">
<stop offset="0.227" stop-color="#82C6FF"/>
<stop offset="1" stop-color="#83C6FF" stop-opacity="0"/>
</radialGradient>
<radialGradient id="paint21_radial_3456_1071" cx="0" cy="0" r="1" gradientUnits="userSpaceOnUse" gradientTransform="translate(4.82075 7.27456) rotate(94.4013) scale(1.81003 1.15057)">
<stop offset="0.449" stop-color="#73ABEE" stop-opacity="0"/>
<stop offset="0.846" stop-color="#70AFE2"/>
</radialGradient>
<radialGradient id="paint22_radial_3456_1071" cx="0" cy="0" r="1" gradientUnits="userSpaceOnUse" gradientTransform="translate(4.68163 7.15719) rotate(90) scale(1.28906 0.964541)">
<stop offset="0.405" stop-color="#73B3E4"/>
<stop offset="1" stop-color="#6FB0E0" stop-opacity="0"/>
</radialGradient>
<linearGradient id="paint23_linear_3456_1071" x1="20.4374" y1="6.54735" x2="22.4882" y2="8.18797" gradientUnits="userSpaceOnUse">
<stop stop-color="#70D9EA"/>
<stop offset="1" stop-color="#70DEF1"/>
</linearGradient>
<linearGradient id="paint24_linear_3456_1071" x1="24.3164" y1="8.93797" x2="24.1757" y2="8.53972" gradientUnits="userSpaceOnUse">
<stop offset="0.175" stop-color="#85F6FF"/>
<stop offset="0.73" stop-color="#85F6FF" stop-opacity="0"/>
</linearGradient>
<linearGradient id="paint25_linear_3456_1071" x1="19.828" y1="8.63347" x2="19.9922" y2="8.16472" gradientUnits="userSpaceOnUse">
<stop offset="0.175" stop-color="#4CBFE2"/>
<stop offset="0.73" stop-color="#60CAE4" stop-opacity="0"/>
</linearGradient>
<radialGradient id="paint26_radial_3456_1071" cx="0" cy="0" r="1" gradientUnits="userSpaceOnUse" gradientTransform="translate(22.6229 9.46522) rotate(77.7994) scale(0.221805 0.412357)">
<stop offset="0.561" stop-color="#83F3FE"/>
<stop offset="1" stop-color="#82F3FE" stop-opacity="0"/>
</radialGradient>
<linearGradient id="paint27_linear_3456_1071" x1="20.0391" y1="6.66472" x2="20.1445" y2="6.94597" gradientUnits="userSpaceOnUse">
<stop stop-color="#66C5D6"/>
<stop offset="1" stop-color="#78D5E6" stop-opacity="0"/>
</linearGradient>
<linearGradient id="paint28_linear_3456_1071" x1="20.0391" y1="6.66472" x2="20.1445" y2="6.94597" gradientUnits="userSpaceOnUse">
<stop stop-color="#70C0CE"/>
<stop offset="0.317" stop-color="#6DD1E1" stop-opacity="0"/>
</linearGradient>
<linearGradient id="paint29_linear_3456_1071" x1="23.3911" y1="9.50008" x2="26.9536" y2="14.6095" gradientUnits="userSpaceOnUse">
<stop stop-color="#57E1FF"/>
<stop offset="1" stop-color="#3FC0FF"/>
</linearGradient>
<linearGradient id="paint30_linear_3456_1071" x1="25.6411" y1="15.2072" x2="25.4536" y2="14.7032" gradientUnits="userSpaceOnUse">
<stop stop-color="#4AA3FF"/>
<stop offset="1" stop-color="#3CAEFF" stop-opacity="0"/>
</linearGradient>
<linearGradient id="paint31_linear_3456_1071" x1="24.7741" y1="8.65633" x2="24.938" y2="9.12508" gradientUnits="userSpaceOnUse">
<stop offset="0.134" stop-color="#86F7FF"/>
<stop offset="0.802" stop-color="#86F7FF" stop-opacity="0"/>
</linearGradient>
<linearGradient id="paint32_linear_3456_1071" x1="17.6957" y1="8.28202" x2="21.9845" y2="15.2431" gradientUnits="userSpaceOnUse">
<stop stop-color="#51B0D9"/>
<stop offset="0.755" stop-color="#458EF3"/>
</linearGradient>
<linearGradient id="paint33_linear_3456_1071" x1="19.883" y1="8.39939" x2="19.6644" y2="9.00877" gradientUnits="userSpaceOnUse">
<stop offset="0.307" stop-color="#4CBFE2"/>
<stop offset="1" stop-color="#4ABDE1" stop-opacity="0"/>
</linearGradient>
<radialGradient id="paint34_radial_3456_1071" cx="0" cy="0" r="1" gradientUnits="userSpaceOnUse" gradientTransform="translate(22.6408 9.47752) rotate(151.928) scale(0.398438 0.412176)">
<stop offset="0.422" stop-color="#86F8FF"/>
<stop offset="1" stop-color="#85F6FF" stop-opacity="0"/>
</radialGradient>
<radialGradient id="paint35_radial_3456_1071" cx="0" cy="0" r="1" gradientUnits="userSpaceOnUse" gradientTransform="translate(23.93 12.0989) rotate(77.773) scale(1.1067 0.704186)">
<stop stop-color="#67C9FF"/>
<stop offset="1" stop-color="#62C9FF" stop-opacity="0"/>
</radialGradient>
<radialGradient id="paint36_radial_3456_1071" cx="0" cy="0" r="1" gradientUnits="userSpaceOnUse" gradientTransform="translate(24.6565 10.4617) rotate(71.061) scale(1.26372 0.463369)">
<stop stop-color="#B0FFFF"/>
<stop offset="1" stop-color="#AFFEFF" stop-opacity="0"/>
</radialGradient>
<radialGradient id="paint37_radial_3456_1071" cx="0" cy="0" r="1" gradientUnits="userSpaceOnUse" gradientTransform="translate(26.5038 12.8243) rotate(82.878) scale(0.40659 0.386494)">
<stop stop-color="#5ADBFF"/>
<stop offset="1" stop-color="#51E5FF"/>
</radialGradient>
<radialGradient id="paint38_radial_3456_1071" cx="0" cy="0" r="1" gradientUnits="userSpaceOnUse" gradientTransform="translate(26.6721 12.6704) rotate(67.225) scale(0.1665 0.323137)">
<stop stop-color="#8CF5FF"/>
<stop offset="1" stop-color="#78EDFF" stop-opacity="0"/>
</radialGradient>
<radialGradient id="paint39_radial_3456_1071" cx="0" cy="0" r="1" gradientUnits="userSpaceOnUse" gradientTransform="translate(21.4107 11.9444) rotate(107.942) scale(0.646683 0.739327)">
<stop stop-color="#59AFF3"/>
<stop offset="0.462" stop-color="#52A7F3"/>
<stop offset="0.801" stop-color="#64AEF1"/>
</radialGradient>
<radialGradient id="paint40_radial_3456_1071" cx="0" cy="0" r="1" gradientUnits="userSpaceOnUse" gradientTransform="translate(21.4517 11.9148) rotate(145.619) scale(0.134896 0.121215)">
<stop offset="0.227" stop-color="#82C6FF"/>
<stop offset="1" stop-color="#83C6FF" stop-opacity="0"/>
</radialGradient>
<radialGradient id="paint41_radial_3456_1071" cx="0" cy="0" r="1" gradientUnits="userSpaceOnUse" gradientTransform="translate(19.8175 13.5986) rotate(107.533) scale(0.768697 0.861375)">
<stop stop-color="#59AFF3"/>
<stop offset="0.462" stop-color="#52A7F3"/>
<stop offset="0.801" stop-color="#64AEF1"/>
</radialGradient>
<radialGradient id="paint42_radial_3456_1071" cx="0" cy="0" r="1" gradientUnits="userSpaceOnUse" gradientTransform="translate(19.8652 13.5633) rotate(144.96) scale(0.158059 0.143269)">
<stop offset="0.227" stop-color="#82C6FF"/>
<stop offset="1" stop-color="#83C6FF" stop-opacity="0"/>
</radialGradient>
<radialGradient id="paint43_radial_3456_1071" cx="0" cy="0" r="1" gradientUnits="userSpaceOnUse" gradientTransform="translate(18.8208 10.2746) rotate(94.4013) scale(1.81003 1.15057)">
<stop offset="0.449" stop-color="#73ABEE" stop-opacity="0"/>
<stop offset="0.846" stop-color="#70AFE2"/>
</radialGradient>
<radialGradient id="paint44_radial_3456_1071" cx="0" cy="0" r="1" gradientUnits="userSpaceOnUse" gradientTransform="translate(18.6816 10.1572) rotate(90) scale(1.28906 0.964541)">
<stop offset="0.405" stop-color="#73B3E4"/>
<stop offset="1" stop-color="#6FB0E0" stop-opacity="0"/>
</radialGradient>
<linearGradient id="paint45_linear_3456_1071" x1="10.4374" y1="16.5473" x2="12.4882" y2="18.188" gradientUnits="userSpaceOnUse">
<stop stop-color="#70D9EA"/>
<stop offset="1" stop-color="#70DEF1"/>
</linearGradient>
<linearGradient id="paint46_linear_3456_1071" x1="14.3164" y1="18.938" x2="14.1757" y2="18.5397" gradientUnits="userSpaceOnUse">
<stop offset="0.175" stop-color="#85F6FF"/>
<stop offset="0.73" stop-color="#85F6FF" stop-opacity="0"/>
</linearGradient>
<linearGradient id="paint47_linear_3456_1071" x1="9.82798" y1="18.6335" x2="9.99223" y2="18.1647" gradientUnits="userSpaceOnUse">
<stop offset="0.175" stop-color="#4CBFE2"/>
<stop offset="0.73" stop-color="#60CAE4" stop-opacity="0"/>
</linearGradient>
<radialGradient id="paint48_radial_3456_1071" cx="0" cy="0" r="1" gradientUnits="userSpaceOnUse" gradientTransform="translate(12.6229 19.4652) rotate(77.7994) scale(0.221805 0.412357)">
<stop offset="0.561" stop-color="#83F3FE"/>
<stop offset="1" stop-color="#82F3FE" stop-opacity="0"/>
</radialGradient>
<linearGradient id="paint49_linear_3456_1071" x1="10.0391" y1="16.6647" x2="10.1445" y2="16.946" gradientUnits="userSpaceOnUse">
<stop stop-color="#66C5D6"/>
<stop offset="1" stop-color="#78D5E6" stop-opacity="0"/>
</linearGradient>
<linearGradient id="paint50_linear_3456_1071" x1="10.0391" y1="16.6647" x2="10.1445" y2="16.946" gradientUnits="userSpaceOnUse">
<stop stop-color="#70C0CE"/>
<stop offset="0.317" stop-color="#6DD1E1" stop-opacity="0"/>
</linearGradient>
<linearGradient id="paint51_linear_3456_1071" x1="13.3911" y1="19.5001" x2="16.9536" y2="24.6095" gradientUnits="userSpaceOnUse">
<stop stop-color="#57E1FF"/>
<stop offset="1" stop-color="#3FC0FF"/>
</linearGradient>
<linearGradient id="paint52_linear_3456_1071" x1="15.6411" y1="25.2072" x2="15.4536" y2="24.7032" gradientUnits="userSpaceOnUse">
<stop stop-color="#4AA3FF"/>
<stop offset="1" stop-color="#3CAEFF" stop-opacity="0"/>
</linearGradient>
<linearGradient id="paint53_linear_3456_1071" x1="14.7741" y1="18.6563" x2="14.938" y2="19.1251" gradientUnits="userSpaceOnUse">
<stop offset="0.134" stop-color="#86F7FF"/>
<stop offset="0.802" stop-color="#86F7FF" stop-opacity="0"/>
</linearGradient>
<linearGradient id="paint54_linear_3456_1071" x1="7.69567" y1="18.282" x2="11.9845" y2="25.2431" gradientUnits="userSpaceOnUse">
<stop stop-color="#51B0D9"/>
<stop offset="0.755" stop-color="#458EF3"/>
</linearGradient>
<linearGradient id="paint55_linear_3456_1071" x1="9.88304" y1="18.3994" x2="9.66442" y2="19.0088" gradientUnits="userSpaceOnUse">
<stop offset="0.307" stop-color="#4CBFE2"/>
<stop offset="1" stop-color="#4ABDE1" stop-opacity="0"/>
</linearGradient>
<radialGradient id="paint56_radial_3456_1071" cx="0" cy="0" r="1" gradientUnits="userSpaceOnUse" gradientTransform="translate(12.6408 19.4775) rotate(151.928) scale(0.398438 0.412176)">
<stop offset="0.422" stop-color="#86F8FF"/>
<stop offset="1" stop-color="#85F6FF" stop-opacity="0"/>
</radialGradient>
<radialGradient id="paint57_radial_3456_1071" cx="0" cy="0" r="1" gradientUnits="userSpaceOnUse" gradientTransform="translate(13.93 22.0989) rotate(77.773) scale(1.1067 0.704186)">
<stop stop-color="#67C9FF"/>
<stop offset="1" stop-color="#62C9FF" stop-opacity="0"/>
</radialGradient>
<radialGradient id="paint58_radial_3456_1071" cx="0" cy="0" r="1" gradientUnits="userSpaceOnUse" gradientTransform="translate(14.6565 20.4617) rotate(71.061) scale(1.26372 0.463369)">
<stop stop-color="#B0FFFF"/>
<stop offset="1" stop-color="#AFFEFF" stop-opacity="0"/>
</radialGradient>
<radialGradient id="paint59_radial_3456_1071" cx="0" cy="0" r="1" gradientUnits="userSpaceOnUse" gradientTransform="translate(16.5038 22.8243) rotate(82.878) scale(0.40659 0.386494)">
<stop stop-color="#5ADBFF"/>
<stop offset="1" stop-color="#51E5FF"/>
</radialGradient>
<radialGradient id="paint60_radial_3456_1071" cx="0" cy="0" r="1" gradientUnits="userSpaceOnUse" gradientTransform="translate(16.6721 22.6704) rotate(67.225) scale(0.1665 0.323137)">
<stop stop-color="#8CF5FF"/>
<stop offset="1" stop-color="#78EDFF" stop-opacity="0"/>
</radialGradient>
<radialGradient id="paint61_radial_3456_1071" cx="0" cy="0" r="1" gradientUnits="userSpaceOnUse" gradientTransform="translate(11.4107 21.9444) rotate(107.942) scale(0.646683 0.739327)">
<stop stop-color="#59AFF3"/>
<stop offset="0.462" stop-color="#52A7F3"/>
<stop offset="0.801" stop-color="#64AEF1"/>
</radialGradient>
<radialGradient id="paint62_radial_3456_1071" cx="0" cy="0" r="1" gradientUnits="userSpaceOnUse" gradientTransform="translate(11.4517 21.9148) rotate(145.619) scale(0.134896 0.121215)">
<stop offset="0.227" stop-color="#82C6FF"/>
<stop offset="1" stop-color="#83C6FF" stop-opacity="0"/>
</radialGradient>
<radialGradient id="paint63_radial_3456_1071" cx="0" cy="0" r="1" gradientUnits="userSpaceOnUse" gradientTransform="translate(9.81751 23.5986) rotate(107.533) scale(0.768697 0.861375)">
<stop stop-color="#59AFF3"/>
<stop offset="0.462" stop-color="#52A7F3"/>
<stop offset="0.801" stop-color="#64AEF1"/>
</radialGradient>
<radialGradient id="paint64_radial_3456_1071" cx="0" cy="0" r="1" gradientUnits="userSpaceOnUse" gradientTransform="translate(9.86522 23.5633) rotate(144.96) scale(0.158059 0.143269)">
<stop offset="0.227" stop-color="#82C6FF"/>
<stop offset="1" stop-color="#83C6FF" stop-opacity="0"/>
</radialGradient>
<radialGradient id="paint65_radial_3456_1071" cx="0" cy="0" r="1" gradientUnits="userSpaceOnUse" gradientTransform="translate(8.82075 20.2746) rotate(94.4013) scale(1.81003 1.15057)">
<stop offset="0.449" stop-color="#73ABEE" stop-opacity="0"/>
<stop offset="0.846" stop-color="#70AFE2"/>
</radialGradient>
<radialGradient id="paint66_radial_3456_1071" cx="0" cy="0" r="1" gradientUnits="userSpaceOnUse" gradientTransform="translate(8.68163 20.1572) rotate(90) scale(1.28906 0.964541)">
<stop offset="0.405" stop-color="#73B3E4"/>
<stop offset="1" stop-color="#6FB0E0" stop-opacity="0"/>
</radialGradient>
</defs>
</svg>
