<svg width="30" height="30" viewBox="0 0 30 30" fill="none" xmlns="http://www.w3.org/2000/svg">
<path d="M10.5624 23.6255C10.2499 23.7921 9.93243 23.8184 9.60993 23.7042C9.28743 23.59 9.04243 23.3763 8.87493 23.063L6.99993 19.313C6.83326 19.0005 6.80743 18.6826 6.92243 18.3592C7.03743 18.0359 7.25076 17.7913 7.56243 17.6255C7.87493 17.4588 8.19285 17.433 8.51618 17.548C8.83951 17.663 9.0841 17.8763 9.24993 18.188L11.1249 21.938C11.2916 22.2505 11.3178 22.5684 11.2037 22.8917C11.0895 23.215 10.8758 23.4596 10.5624 23.6255ZM21.8124 23.6255C21.4999 23.7921 21.1824 23.8184 20.8599 23.7042C20.5374 23.59 20.2924 23.3763 20.1249 23.063L14.4999 11.813C14.3333 11.5005 14.3074 11.183 14.4224 10.8605C14.5374 10.538 14.7508 10.293 15.0624 10.1255C15.3749 9.9588 15.6928 9.93255 16.0162 10.0467C16.3395 10.1609 16.5841 10.3746 16.7499 10.688L22.3749 21.938C22.5416 22.2505 22.5678 22.5684 22.4537 22.8917C22.3395 23.215 22.1258 23.4596 21.8124 23.6255ZM15.9374 23.7505C15.5833 23.7505 15.2866 23.6309 15.0474 23.3917C14.8083 23.1525 14.6883 22.8555 14.6874 22.5005C14.6874 22.1463 14.8074 21.8492 15.0474 21.6092C15.2874 21.3692 15.5841 21.2496 15.9374 21.2505C16.2916 21.2505 16.5887 21.3705 16.8287 21.6105C17.0687 21.8505 17.1883 22.1471 17.1874 22.5005C17.1874 22.8546 17.0674 23.1517 16.8274 23.3917C16.5874 23.6317 16.2908 23.7513 15.9374 23.7505ZM28.0624 23.6255C27.7499 23.7921 27.4324 23.8184 27.1099 23.7042C26.7874 23.59 26.5424 23.3763 26.3749 23.063L25.7499 21.813C25.5833 21.5005 25.557 21.1826 25.6712 20.8592C25.7853 20.5359 25.9991 20.2913 26.3124 20.1255C26.6249 19.9588 26.9428 19.9326 27.2662 20.0467C27.5895 20.1609 27.8341 20.3746 27.9999 20.688L28.6249 21.938C28.7916 22.2505 28.8178 22.5684 28.7037 22.8917C28.5895 23.215 28.3758 23.4596 28.0624 23.6255ZM14.3124 19.8755C13.9999 20.0421 13.6824 20.0684 13.3599 19.9542C13.0374 19.84 12.7924 19.6263 12.6249 19.313L6.99993 8.06297C6.83326 7.75047 6.80743 7.43297 6.92243 7.11047C7.03743 6.78797 7.25076 6.54297 7.56243 6.37547C7.87493 6.2088 8.19285 6.18297 8.51618 6.29797C8.83951 6.41297 9.0841 6.6263 9.24993 6.93797L14.8749 18.188C15.0416 18.5005 15.0678 18.8184 14.9537 19.1417C14.8395 19.465 14.6258 19.7096 14.3124 19.8755ZM24.9999 18.7505C24.6458 18.7505 24.3487 18.6305 24.1087 18.3905C23.8687 18.1505 23.7491 17.8538 23.7499 17.5005C23.7499 17.1463 23.8699 16.8492 24.1099 16.6092C24.3499 16.3692 24.6466 16.2496 24.9999 16.2505C25.3541 16.2505 25.6512 16.3705 25.8912 16.6105C26.1312 16.8505 26.2508 17.1471 26.2499 17.5005C26.2499 17.8546 26.1299 18.1517 25.8899 18.3917C25.6499 18.6317 25.3533 18.7513 24.9999 18.7505ZM6.24993 16.2505C5.89576 16.2505 5.59868 16.1305 5.35868 15.8905C5.11868 15.6505 4.9991 15.3538 4.99993 15.0005C4.99993 14.6463 5.11993 14.3492 5.35993 14.1092C5.59993 13.8692 5.8966 13.7496 6.24993 13.7505C6.6041 13.7505 6.90118 13.8705 7.14118 14.1105C7.38118 14.3505 7.50076 14.6471 7.49993 15.0005C7.49993 15.3546 7.37993 15.6517 7.13993 15.8917C6.89993 16.1317 6.60326 16.2513 6.24993 16.2505ZM23.6874 14.8755C23.3749 15.0421 23.0574 15.0684 22.7349 14.9542C22.4124 14.8401 22.1674 14.6263 21.9999 14.313L18.8749 8.06297C18.7083 7.75047 18.6824 7.43255 18.7974 7.10922C18.9124 6.78588 19.1258 6.5413 19.4374 6.37547C19.7499 6.2088 20.0678 6.18297 20.3912 6.29797C20.7145 6.41297 20.9591 6.6263 21.1249 6.93797L24.2499 13.188C24.4166 13.5005 24.4428 13.8184 24.3287 14.1417C24.2145 14.465 24.0008 14.7096 23.6874 14.8755ZM4.93743 12.3755C4.62493 12.5421 4.30743 12.5684 3.98493 12.4542C3.66243 12.3401 3.41743 12.1263 3.24993 11.813L1.37493 8.06297C1.20826 7.75047 1.18201 7.43255 1.29618 7.10922C1.41035 6.78588 1.6241 6.5413 1.93743 6.37547C2.24993 6.2088 2.56785 6.18297 2.89118 6.29797C3.21451 6.41297 3.4591 6.6263 3.62493 6.93797L5.49993 10.688C5.6666 11.0005 5.69285 11.3184 5.57868 11.6417C5.46451 11.9651 5.25076 12.2096 4.93743 12.3755ZM14.0624 8.75047C13.7083 8.75047 13.4116 8.63047 13.1724 8.39047C12.9333 8.15047 12.8133 7.8538 12.8124 7.50047C12.8124 7.1463 12.9324 6.84922 13.1724 6.60922C13.4124 6.36922 13.7091 6.24963 14.0624 6.25047C14.4166 6.25047 14.7137 6.37047 14.9537 6.61047C15.1937 6.85047 15.3133 7.14713 15.3124 7.50047C15.3124 7.85463 15.1924 8.15172 14.9524 8.39172C14.7124 8.63172 14.4158 8.7513 14.0624 8.75047Z" fill="url(#paint0_linear_3456_1197)"/>
<defs>
<linearGradient id="paint0_linear_3456_1197" x1="14.9999" y1="6.22754" x2="14.9999" y2="23.7738" gradientUnits="userSpaceOnUse">
<stop stop-color="#2790F9"/>
<stop offset="1" stop-color="#0073E5"/>
</linearGradient>
</defs>
</svg>
