<svg width="30" height="30" viewBox="0 0 30 30" fill="none" xmlns="http://www.w3.org/2000/svg">
<path d="M6.25 5H23.75M6.25 5H5.625M6.25 5L7.5 15M23.75 5H24.375M23.75 5L22.5 15M7.5 15L8.47625 22.81C8.55182 23.4147 8.84569 23.9711 9.30262 24.3743C9.75955 24.7776 10.3481 25.0001 10.9575 25H19.0425C19.6519 25.0001 20.2405 24.7776 20.6974 24.3743C21.1543 23.9711 21.4482 23.4147 21.5237 22.81L22.5 15M7.5 15L10.09 14.1375C10.4512 14.017 10.8351 13.9806 11.2125 14.0311C11.5898 14.0816 11.9507 14.2176 12.2675 14.4288L13.6137 15.325C14.0243 15.5986 14.5066 15.7445 15 15.7445C15.4934 15.7445 15.9757 15.5986 16.3863 15.325L17.7325 14.4288C18.0492 14.2174 18.41 14.0812 18.7874 14.0305C19.1648 13.9798 19.5487 14.016 19.91 14.1363L22.5 15" stroke="#2790F9" stroke-width="2" stroke-linecap="round" stroke-linejoin="round"/>
</svg>
