<svg width="31" height="30" viewBox="0 0 31 30" fill="none" xmlns="http://www.w3.org/2000/svg">
<path d="M27.5119 20.4492L25.5198 19.2984C25.8803 18.9271 26.2937 18.6112 26.7467 18.3609C27.0429 18.194 27.261 17.9168 27.3538 17.5897C27.4465 17.2626 27.4063 16.9121 27.2419 16.6146C27.0775 16.317 26.8021 16.0965 26.4759 16.0009C26.1496 15.9054 25.7988 15.9426 25.4998 16.1045C24.6349 16.5832 23.8685 17.2214 23.241 17.9854L18.0783 15L23.2399 12.0199C23.8671 12.784 24.6336 13.4222 25.4987 13.9008C25.6469 13.9844 25.8103 14.0378 25.9793 14.0579C26.1483 14.078 26.3196 14.0645 26.4834 14.0181C26.6471 13.9716 26.8001 13.8932 26.9334 13.7874C27.0667 13.6815 27.1777 13.5503 27.26 13.4013C27.3423 13.2524 27.3943 13.0886 27.413 12.9194C27.4317 12.7502 27.4167 12.579 27.3689 12.4156C27.321 12.2523 27.2413 12.1 27.1343 11.9677C27.0274 11.8353 26.8952 11.7254 26.7455 11.6443C26.2926 11.3939 25.8792 11.078 25.5186 10.7068L27.5108 9.55605C27.6632 9.47458 27.7976 9.36331 27.9061 9.22884C28.0146 9.09437 28.095 8.93945 28.1425 8.7733C28.1899 8.60715 28.2035 8.43315 28.1824 8.26165C28.1612 8.09015 28.1059 7.92465 28.0195 7.77498C27.9331 7.62532 27.8176 7.49454 27.6796 7.39043C27.5417 7.28632 27.3843 7.21101 27.2167 7.16896C27.0491 7.12691 26.8747 7.11898 26.704 7.14565C26.5333 7.17233 26.3697 7.23305 26.2229 7.32422L24.2307 8.47441C24.0888 7.97633 24.0213 7.46001 24.0303 6.94219C24.034 6.77261 24.0043 6.60395 23.9427 6.4459C23.8811 6.28785 23.7889 6.1435 23.6715 6.02113C23.554 5.89877 23.4135 5.80079 23.2581 5.73281C23.1027 5.66483 22.9354 5.6282 22.7658 5.625H22.7418C22.4041 5.62494 22.0798 5.75745 21.8387 5.99403C21.5976 6.2306 21.4591 6.55234 21.4528 6.89004C21.4346 7.87786 21.6036 8.86019 21.9508 9.78516L16.7893 12.767V6.80742C17.7645 6.64624 18.7004 6.30169 19.5473 5.79199C19.8401 5.61554 20.0509 5.32997 20.1332 4.99812C20.2155 4.66627 20.1626 4.31531 19.9862 4.02246C19.8097 3.72961 19.5241 3.51885 19.1923 3.43655C18.8604 3.35424 18.5095 3.40714 18.2166 3.58359C17.7727 3.85041 17.2917 4.05004 16.7893 4.17598V2.22656C16.7893 1.88468 16.6535 1.5568 16.4117 1.31506C16.17 1.07331 15.8421 0.9375 15.5002 0.9375C15.1583 0.9375 14.8305 1.07331 14.5887 1.31506C14.347 1.5568 14.2112 1.88468 14.2112 2.22656V4.17598C13.7087 4.05004 13.2278 3.85041 12.7838 3.58359C12.491 3.40714 12.14 3.35424 11.8082 3.43655C11.4763 3.51885 11.1907 3.72961 11.0143 4.02246C10.8378 4.31531 10.7849 4.66627 10.8672 4.99812C10.9495 5.32997 11.1603 5.61554 11.4531 5.79199C12.3001 6.30169 13.2359 6.64624 14.2112 6.80742V12.767L9.04963 9.78516C9.39739 8.8599 9.56678 7.87716 9.54885 6.88887C9.54256 6.55117 9.40397 6.22943 9.16291 5.99285C8.92184 5.75628 8.59755 5.62377 8.25979 5.62383H8.23459C8.0653 5.62695 7.89829 5.6634 7.74308 5.73109C7.58788 5.79877 7.44753 5.89637 7.33006 6.01831C7.21258 6.14025 7.12028 6.28413 7.05843 6.44175C6.99657 6.59937 6.96637 6.76762 6.96956 6.93691C6.979 7.45549 6.91167 7.97261 6.76975 8.47148L4.77756 7.32422C4.63086 7.23671 4.46823 7.17923 4.29911 7.15512C4.13 7.13101 3.95778 7.14076 3.79247 7.18379C3.62716 7.22682 3.47205 7.30228 3.33615 7.40578C3.20025 7.50928 3.08628 7.63875 3.00086 7.78668C2.91544 7.93462 2.86028 8.09805 2.83857 8.26749C2.81687 8.43692 2.82906 8.60898 2.87443 8.77367C2.9198 8.93836 2.99745 9.09238 3.10287 9.2268C3.20829 9.36121 3.33937 9.47333 3.4885 9.55664L5.48069 10.7074C5.12007 11.0786 4.70662 11.3945 4.25373 11.6449C4.10406 11.726 3.97192 11.8359 3.86493 11.9682C3.75795 12.1006 3.67824 12.2529 3.63041 12.4162C3.58258 12.5796 3.56757 12.7508 3.58625 12.92C3.60494 13.0892 3.65694 13.253 3.73926 13.4019C3.82159 13.5509 3.9326 13.6821 4.06589 13.788C4.19918 13.8938 4.35212 13.9722 4.51587 14.0186C4.67963 14.0651 4.85096 14.0786 5.01997 14.0585C5.18899 14.0384 5.35234 13.985 5.50061 13.9014C6.36553 13.4226 7.13197 12.7844 7.7594 12.0205L12.9221 15L7.76057 17.9801C7.13314 17.2161 6.3667 16.5779 5.50178 16.0992C5.35351 16.0156 5.19016 15.9622 5.02114 15.9421C4.85213 15.922 4.6808 15.9355 4.51705 15.9819C4.35329 16.0284 4.20036 16.1068 4.06706 16.2126C3.93377 16.3185 3.82276 16.4497 3.74043 16.5986C3.65811 16.7476 3.60611 16.9114 3.58743 17.0806C3.56874 17.2498 3.58375 17.421 3.63158 17.5844C3.67941 17.7477 3.75912 17.9 3.8661 18.0323C3.97309 18.1647 4.10523 18.2746 4.25491 18.3557C4.7078 18.6061 5.12124 18.922 5.48186 19.2932L3.4885 20.4492C3.33937 20.5325 3.20829 20.6447 3.10287 20.7791C2.99745 20.9135 2.9198 21.0675 2.87443 21.2322C2.82906 21.3969 2.81687 21.5689 2.83857 21.7384C2.86028 21.9078 2.91544 22.0712 3.00086 22.2192C3.08628 22.3671 3.20025 22.4966 3.33615 22.6001C3.47205 22.7036 3.62716 22.779 3.79247 22.8221C3.95778 22.8651 4.13 22.8748 4.29911 22.8507C4.46823 22.8266 4.63086 22.7692 4.77756 22.6816L6.76975 21.5314C6.91164 22.0295 6.97917 22.5458 6.97014 23.0637C6.96418 23.4052 7.09399 23.7351 7.33107 23.9809C7.56814 24.2268 7.89311 24.3685 8.23459 24.375H8.25862C8.59638 24.3751 8.92067 24.2425 9.16173 24.006C9.4028 23.7694 9.54139 23.4477 9.54768 23.11C9.56583 22.1221 9.39684 21.1398 9.04963 20.2148L14.2112 17.233V23.1926C13.2359 23.3538 12.3001 23.6983 11.4531 24.208C11.1603 24.3845 10.9495 24.67 10.8672 25.0019C10.7849 25.3337 10.8378 25.6847 11.0143 25.9775C11.1907 26.2704 11.4763 26.4812 11.8082 26.5635C12.14 26.6458 12.491 26.5929 12.7838 26.4164C13.2278 26.1496 13.7087 25.95 14.2112 25.824V27.7734C14.2112 28.1153 14.347 28.4432 14.5887 28.6849C14.8305 28.9267 15.1583 29.0625 15.5002 29.0625C15.8421 29.0625 16.17 28.9267 16.4117 28.6849C16.6535 28.4432 16.7893 28.1153 16.7893 27.7734V25.824C17.2917 25.95 17.7727 26.1496 18.2166 26.4164C18.5095 26.5929 18.8604 26.6458 19.1923 26.5635C19.5241 26.4811 19.8097 26.2704 19.9862 25.9775C20.1626 25.6847 20.2155 25.3337 20.1332 25.0019C20.0509 24.67 19.8401 24.3845 19.5473 24.208C18.7004 23.6983 17.7645 23.3538 16.7893 23.1926V17.233L21.9508 20.2148C21.603 21.1401 21.4337 22.1228 21.4516 23.1111C21.4579 23.4488 21.5965 23.7706 21.8375 24.0071C22.0786 24.2437 22.4029 24.3762 22.7407 24.3762H22.7658C22.9351 24.373 23.1022 24.3366 23.2574 24.2689C23.4126 24.2012 23.5529 24.1036 23.6704 23.9817C23.7879 23.8598 23.8802 23.7159 23.942 23.5583C24.0039 23.4006 24.0341 23.2324 24.0309 23.0631C24.0214 22.5445 24.0888 22.0274 24.2307 21.5285L26.2229 22.6787C26.3696 22.7729 26.5339 22.8364 26.7058 22.8653C26.8777 22.8941 27.0537 22.8879 27.2231 22.8468C27.3926 22.8057 27.5519 22.7307 27.6915 22.6262C27.8311 22.5218 27.9481 22.3902 28.0353 22.2392C28.1226 22.0883 28.1783 21.9213 28.1992 21.7482C28.22 21.5751 28.2056 21.3996 28.1566 21.2322C28.1077 21.0649 28.0253 20.9092 27.9145 20.7747C27.8037 20.6401 27.6668 20.5294 27.5119 20.4492Z" fill="url(#paint0_linear_3456_1201)"/>
<defs>
<linearGradient id="paint0_linear_3456_1201" x1="15.5183" y1="0.9375" x2="15.5183" y2="29.0625" gradientUnits="userSpaceOnUse">
<stop stop-color="#2790F9"/>
<stop offset="1" stop-color="#0065CB"/>
</linearGradient>
</defs>
</svg>
