<svg width="31" height="30" viewBox="0 0 31 30" fill="none" xmlns="http://www.w3.org/2000/svg">
<g clip-path="url(#clip0_3456_1888)">
<path d="M9.875 23.4375C9.87473 23.9531 9.73275 24.4586 9.46459 24.8989C9.19642 25.3393 8.81238 25.6974 8.35443 25.9342C7.89648 26.1711 7.38225 26.2775 6.86792 26.2418C6.3536 26.2061 5.85898 26.0298 5.4381 25.732C5.01723 25.4342 4.6863 25.0265 4.48148 24.5534C4.27666 24.0802 4.20582 23.5599 4.27672 23.0493C4.34762 22.5386 4.55752 22.0573 4.88348 21.6578C5.20944 21.2584 5.63893 20.9562 6.125 20.7844V17.8125C6.125 17.5639 6.22377 17.3254 6.39959 17.1496C6.5754 16.9738 6.81386 16.875 7.0625 16.875C7.31114 16.875 7.5496 16.9738 7.72541 17.1496C7.90123 17.3254 8 17.5639 8 17.8125V20.7844C8.54858 20.9783 9.02351 21.3377 9.35932 21.8128C9.69514 22.288 9.87531 22.8556 9.875 23.4375Z" fill="url(#paint0_linear_3456_1888)"/>
<path d="M2.375 4.6875C2.375 3.4443 2.86886 2.25201 3.74794 1.37294C4.62702 0.49386 5.8193 0 7.0625 0C8.30571 0 9.49799 0.49386 10.3771 1.37294C11.2561 2.25201 11.75 3.4443 11.75 4.6875V18.8438C12.6544 19.7668 13.2661 20.9363 13.5085 22.2056C13.7509 23.4749 13.6132 24.7875 13.1126 25.9788C12.612 27.1701 11.7708 28.1872 10.6945 28.9023C9.61822 29.6175 8.35474 29.999 7.0625 29.999C5.77027 29.999 4.50679 29.6175 3.43051 28.9023C2.35422 28.1872 1.51304 27.1701 1.01244 25.9788C0.511834 24.7875 0.374094 23.4749 0.61649 22.2056C0.858885 20.9363 1.47063 19.7668 2.375 18.8438V4.6875ZM7.0625 1.875C6.31658 1.875 5.60121 2.17132 5.07377 2.69876C4.54632 3.22621 4.25 3.94158 4.25 4.6875V19.6631L3.93688 19.9444C3.2292 20.5772 2.73037 21.41 2.50639 22.3326C2.28241 23.2552 2.34384 24.224 2.68256 25.1109C3.02128 25.9978 3.62131 26.761 4.40325 27.2993C5.1852 27.8377 6.11219 28.126 7.06157 28.126C8.01094 28.126 8.93793 27.8377 9.71988 27.2993C10.5018 26.761 11.1019 25.9978 11.4406 25.1109C11.7793 24.224 11.8407 23.2552 11.6167 22.3326C11.3928 21.41 10.8939 20.5772 10.1863 19.9444L9.875 19.6613V4.6875C9.875 3.94158 9.57869 3.22621 9.05124 2.69876C8.5238 2.17132 7.80842 1.875 7.0625 1.875ZM16.4375 3.75C16.6861 3.75 16.9246 3.84877 17.1004 4.02459C17.2762 4.2004 17.375 4.43886 17.375 4.6875V7.11188L18.5863 5.89875C18.7623 5.72271 19.001 5.62382 19.25 5.62382C19.499 5.62382 19.7377 5.72271 19.9138 5.89875C20.0898 6.07479 20.1887 6.31355 20.1887 6.5625C20.1887 6.81145 20.0898 7.05021 19.9138 7.22625L17.375 9.76312V13.3762L20.5044 11.5706L21.4325 8.10188C21.4645 7.98295 21.5196 7.87149 21.5947 7.77386C21.6698 7.67624 21.7634 7.59435 21.8701 7.53289C21.9768 7.47143 22.0946 7.4316 22.2168 7.41566C22.3389 7.39972 22.463 7.40799 22.5819 7.44C22.7008 7.47201 22.8123 7.52713 22.9099 7.60222C23.0075 7.6773 23.0894 7.77088 23.1509 7.87761C23.2123 7.98434 23.2522 8.10213 23.2681 8.22425C23.284 8.34638 23.2758 8.47045 23.2438 8.58937L22.7994 10.2431L24.8994 9.03187C25.1146 8.90952 25.3695 8.87725 25.6084 8.94211C25.8473 9.00697 26.0509 9.1637 26.1746 9.3781C26.2984 9.59249 26.3324 9.84715 26.2691 10.0865C26.2058 10.3258 26.0504 10.5304 25.8369 10.6556L23.7369 11.8669L25.3944 12.3112C25.5133 12.3433 25.6248 12.3984 25.7224 12.4735C25.82 12.5486 25.9019 12.6421 25.9634 12.7489C26.0248 12.8556 26.0647 12.9734 26.0806 13.0955C26.0965 13.2176 26.0883 13.3417 26.0563 13.4606C26.0242 13.5796 25.9691 13.691 25.894 13.7886C25.819 13.8863 25.7254 13.9681 25.6186 14.0296C25.5119 14.0911 25.3941 14.1309 25.272 14.1468C25.1499 14.1628 25.0258 14.1545 24.9069 14.1225L21.4419 13.1944L18.3125 15L21.4419 16.8056L24.9088 15.8775C25.0284 15.8434 25.1537 15.8334 25.2772 15.8482C25.4008 15.863 25.5202 15.9023 25.6284 15.9637C25.7366 16.0251 25.8315 16.1074 25.9076 16.2059C25.9837 16.3043 26.0394 16.4169 26.0715 16.5372C26.1036 16.6574 26.1115 16.7828 26.0946 16.9061C26.0778 17.0294 26.0366 17.1481 25.9733 17.2553C25.9101 17.3624 25.8262 17.456 25.7265 17.5304C25.6268 17.6048 25.5132 17.6587 25.3925 17.6887L23.7369 18.1331L25.8369 19.3444C26.0504 19.4696 26.2058 19.6742 26.2691 19.9135C26.3324 20.1529 26.2984 20.4075 26.1746 20.6219C26.0509 20.8363 25.8473 20.993 25.6084 21.0579C25.3695 21.1228 25.1146 21.0905 24.8994 20.9681L22.7994 19.7569L23.2438 21.4125C23.2779 21.5322 23.2878 21.6574 23.273 21.781C23.2582 21.9045 23.219 22.0239 23.1576 22.1321C23.0962 22.2404 23.0139 22.3353 22.9154 22.4114C22.8169 22.4875 22.7043 22.5432 22.5841 22.5753C22.4639 22.6074 22.3385 22.6152 22.2152 22.5984C22.0919 22.5815 21.9732 22.5403 21.866 22.4771C21.7588 22.4139 21.6653 22.33 21.5908 22.2303C21.5164 22.1305 21.4626 22.017 21.4325 21.8963L20.5063 18.4312L17.375 16.6238V20.2369L19.9138 22.7738C20.0009 22.8609 20.0701 22.9644 20.1172 23.0783C20.1644 23.1922 20.1887 23.3142 20.1887 23.4375C20.1887 23.5608 20.1644 23.6828 20.1172 23.7967C20.0701 23.9106 20.0009 24.0141 19.9138 24.1012C19.8266 24.1884 19.7231 24.2576 19.6092 24.3047C19.4953 24.3519 19.3733 24.3762 19.25 24.3762C19.1267 24.3762 19.0047 24.3519 18.8908 24.3047C18.7769 24.2576 18.6734 24.1884 18.5863 24.1012L17.375 22.8881V25.3125C17.375 25.5611 17.2762 25.7996 17.1004 25.9754C16.9246 26.1512 16.6861 26.25 16.4375 26.25C16.1889 26.25 15.9504 26.1512 15.7746 25.9754C15.5988 25.7996 15.5 25.5611 15.5 25.3125V4.6875C15.5 4.43886 15.5988 4.2004 15.7746 4.02459C15.9504 3.84877 16.1889 3.75 16.4375 3.75Z" fill="url(#paint1_linear_3456_1888)"/>
</g>
<defs>
<linearGradient id="paint0_linear_3456_1888" x1="7.0625" y1="16.875" x2="7.0625" y2="26.2485" gradientUnits="userSpaceOnUse">
<stop stop-color="#2790F9"/>
<stop offset="1" stop-color="#0065CB"/>
</linearGradient>
<linearGradient id="paint1_linear_3456_1888" x1="13.4001" y1="0" x2="13.4001" y2="29.999" gradientUnits="userSpaceOnUse">
<stop stop-color="#2790F9"/>
<stop offset="1" stop-color="#0065CB"/>
</linearGradient>
<clipPath id="clip0_3456_1888">
<rect width="30" height="30" fill="white" transform="translate(0.5)"/>
</clipPath>
</defs>
</svg>
