<svg width="30" height="30" viewBox="0 0 30 30" fill="none" xmlns="http://www.w3.org/2000/svg">
<path d="M17.5 7.5C17.8315 7.5 18.1495 7.3683 18.3839 7.13388C18.6183 6.89946 18.75 6.58152 18.75 6.25V5C18.75 4.66848 18.6183 4.35054 18.3839 4.11612C18.1495 3.8817 17.8315 3.75 17.5 3.75H12.5C12.1685 3.75 11.8505 3.8817 11.6161 4.11612C11.3817 4.35054 11.25 4.66848 11.25 5V6.25C11.25 6.58152 11.3817 6.89946 11.6161 7.13388C11.8505 7.3683 12.1685 7.5 12.5 7.5M17.5 7.5H12.5M17.5 7.5V8.725C17.5002 9.25602 17.6887 9.76978 18.032 10.1749C18.3753 10.58 18.8512 10.8502 19.375 10.9375C20.4575 11.1175 21.25 12.0538 21.25 13.15V23.75C21.25 24.413 20.9866 25.0489 20.5178 25.5178C20.0489 25.9866 19.413 26.25 18.75 26.25H11.25C10.587 26.25 9.95107 25.9866 9.48223 25.5178C9.01339 25.0489 8.75 24.413 8.75 23.75V13.15C8.75 12.0538 9.5425 11.1175 10.625 10.9375C11.7075 10.7575 12.5 9.82125 12.5 8.725V7.5M8.75 15H21.25M8.75 22.5H21.25M13.75 18.75H16.25" stroke="#2790F9" stroke-width="2" stroke-linecap="round" stroke-linejoin="round"/>
</svg>
