<svg width="36" height="36" viewBox="0 0 36 36" fill="none" xmlns="http://www.w3.org/2000/svg">
<circle cx="18" cy="18" r="17.75" fill="white" stroke="#7B7D83" stroke-width="0.5"/>
<mask id="path-2-inside-1_2649_263" fill="white">
<path d="M24.7868 13.5737L15.8606 22.5L11.8032 18.4426"/>
</mask>
<path d="M26.201 14.9879C26.9821 14.2069 26.9821 12.9406 26.201 12.1595C25.42 11.3785 24.1537 11.3785 23.3726 12.1595L26.201 14.9879ZM15.8606 22.5L14.4464 23.9142C14.8215 24.2892 15.3302 24.5 15.8606 24.5C16.391 24.5 16.8997 24.2892 17.2748 23.9142L15.8606 22.5ZM13.2174 17.0284C12.4364 16.2473 11.1701 16.2473 10.389 17.0284C9.60796 17.8094 9.60796 19.0757 10.389 19.8568L13.2174 17.0284ZM23.3726 12.1595L14.4464 21.0857L17.2748 23.9142L26.201 14.9879L23.3726 12.1595ZM17.2748 21.0857L13.2174 17.0284L10.389 19.8568L14.4464 23.9142L17.2748 21.0857Z" fill="#7B7D83" mask="url(#path-2-inside-1_2649_263)"/>
</svg>
