<svg width="37" height="37" viewBox="0 0 37 37" fill="none" xmlns="http://www.w3.org/2000/svg">
<circle cx="18.5" cy="18.5" r="18.25" fill="white" stroke="#7B7D83" stroke-width="0.5"/>
<path d="M18.2623 11.6505C18.3371 11.4202 18.6629 11.4202 18.7378 11.6505L19.8092 14.948C20.0435 15.669 20.7154 16.1572 21.4735 16.1572H24.9407C25.1829 16.1572 25.2836 16.4671 25.0876 16.6094L22.2827 18.6474C21.6693 19.093 21.4127 19.8829 21.6469 20.6039L22.7183 23.9014C22.7932 24.1317 22.5296 24.3233 22.3336 24.1809L19.5286 22.143C18.9153 21.6973 18.0847 21.6973 17.4714 22.143L14.6664 24.1809L15.1072 24.7877L14.6664 24.1809C14.4705 24.3233 14.2069 24.1317 14.2817 23.9014L15.3531 20.604C15.5874 19.8829 15.3307 19.093 14.7174 18.6474L11.9124 16.6094C11.7165 16.4671 11.8172 16.1572 12.0593 16.1572H15.5265C16.2846 16.1572 16.9566 15.669 17.1908 14.948L18.2623 11.6505Z" fill="white" stroke="#7B7D83" stroke-width="1.5"/>
</svg>
