<svg width="38" height="38" viewBox="0 0 38 38" fill="none" xmlns="http://www.w3.org/2000/svg">
<circle cx="18.7234" cy="19.2766" r="18.4734" fill="white" stroke="#7B7D83" stroke-width="0.5"/>
<mask id="path-2-inside-1_2649_264" fill="white">
<path d="M24.5554 17.1279V25.1084H13.5055V17.1279"/>
</mask>
<path d="M26.0554 17.1279C26.0554 16.2995 25.3838 15.6279 24.5554 15.6279C23.7269 15.6279 23.0554 16.2995 23.0554 17.1279H26.0554ZM24.5554 25.1084V26.6084C25.3838 26.6084 26.0554 25.9368 26.0554 25.1084H24.5554ZM13.5055 25.1084H12.0055C12.0055 25.9368 12.6771 26.6084 13.5055 26.6084V25.1084ZM15.0055 17.1279C15.0055 16.2995 14.3339 15.6279 13.5055 15.6279C12.6771 15.6279 12.0055 16.2995 12.0055 17.1279H15.0055ZM23.0554 17.1279V25.1084H26.0554V17.1279H23.0554ZM24.5554 23.6084H13.5055V26.6084H24.5554V23.6084ZM15.0055 25.1084V17.1279H12.0055V25.1084H15.0055Z" fill="#7B7D83" mask="url(#path-2-inside-1_2649_264)"/>
<path d="M13.0277 16.378V14.8086H25.0331V16.378H13.0277Z" stroke="#7B7D83" stroke-width="1.5" stroke-linecap="round" stroke-linejoin="round"/>
<path d="M17.8026 19.5835H20.2581" stroke="#7B7D83" stroke-width="1.5" stroke-linecap="round" stroke-linejoin="round"/>
</svg>
