<svg width="37" height="37" viewBox="0 0 37 37" fill="none" xmlns="http://www.w3.org/2000/svg">
<circle cx="18.2553" cy="18.7446" r="18.0053" fill="white" stroke="#7B7D83" stroke-width="0.5"/>
<path d="M12.7207 20.6882V14.4072H20.1987V20.6882H12.7207Z" stroke="#7B7D83" stroke-width="1.5" stroke-linecap="round" stroke-linejoin="round"/>
<path d="M21.6987 17.3999H23.0322L24.3885 18.7562V20.6882H21.6987V17.3999Z" stroke="#7B7D83" stroke-width="1.5" stroke-linecap="round" stroke-linejoin="round"/>
<path d="M15.4105 22.9343C15.4105 23.3465 15.0764 23.6807 14.6642 23.6807C14.252 23.6807 13.9178 23.3465 13.9178 22.9343C13.9178 22.5221 14.252 22.188 14.6642 22.188C15.0764 22.188 15.4105 22.5221 15.4105 22.9343Z" stroke="#7B7D83" stroke-width="1.5" stroke-linecap="round" stroke-linejoin="round"/>
<path d="M23.1914 22.9343C23.1914 23.3465 22.8573 23.6807 22.4451 23.6807C22.0329 23.6807 21.6987 23.3465 21.6987 22.9343C21.6987 22.5221 22.0329 22.188 22.4451 22.188C22.8573 22.188 23.1914 22.5221 23.1914 22.9343Z" stroke="#7B7D83" stroke-width="1.5" stroke-linecap="round" stroke-linejoin="round"/>
</svg>
